<?xml version="1.0" encoding="UTF-8"?>
<svg xmlns="http://www.w3.org/2000/svg" xmlns:xlink="http://www.w3.org/1999/xlink" width="375pt" height="374.999991pt" viewBox="0 0 375 374.999991" version="1.2">
<defs>
<clipPath id="clip1">
  <path d="M 56 64 L 319 64 L 319 327.300781 L 56 327.300781 Z M 56 64 "/>
</clipPath>
<clipPath id="clip2">
  <path d="M 101 47.550781 L 133 47.550781 L 133 107 L 101 107 Z M 101 47.550781 "/>
</clipPath>
<clipPath id="clip3">
  <path d="M 242 47.550781 L 274 47.550781 L 274 107 L 242 107 Z M 242 47.550781 "/>
</clipPath>
<clipPath id="clip4">
  <path d="M 58 67 L 317 67 L 317 160.050781 L 58 160.050781 Z M 58 67 "/>
</clipPath>
<clipPath id="clip5">
  <path d="M 56.34375 65 L 318.84375 65 L 318.84375 160.050781 L 56.34375 160.050781 Z M 56.34375 65 "/>
</clipPath>
<clipPath id="clip6">
  <path d="M 56.34375 65 L 318.84375 65 L 318.84375 160.050781 L 56.34375 160.050781 Z M 56.34375 65 "/>
</clipPath>
<clipPath id="clip7">
  <path d="M 101 49.050781 L 134 49.050781 L 134 108 L 101 108 Z M 101 49.050781 "/>
</clipPath>
<clipPath id="clip8">
  <path d="M 242 49.050781 L 274 49.050781 L 274 108 L 242 108 Z M 242 49.050781 "/>
</clipPath>
<clipPath id="clip9">
  <path d="M 94.519531 62 L 138.769531 62 L 138.769531 114.628906 L 94.519531 114.628906 Z M 94.519531 62 "/>
</clipPath>
<clipPath id="clip10">
  <path d="M 94.519531 60 L 138.769531 60 L 138.769531 114.628906 L 94.519531 114.628906 Z M 94.519531 60 "/>
</clipPath>
<clipPath id="clip11">
  <path d="M 94.519531 62 L 138.769531 62 L 138.769531 114.628906 L 94.519531 114.628906 Z M 94.519531 62 "/>
</clipPath>
<clipPath id="clip12">
  <path d="M 94.519531 60 L 138.769531 60 L 138.769531 114.628906 L 94.519531 114.628906 Z M 94.519531 60 "/>
</clipPath>
<clipPath id="clip13">
  <path d="M 101 43.378906 L 134 43.378906 L 134 102 L 101 102 Z M 101 43.378906 "/>
</clipPath>
<clipPath id="clip14">
  <path d="M 235.082031 62 L 279.332031 62 L 279.332031 114.628906 L 235.082031 114.628906 Z M 235.082031 62 "/>
</clipPath>
<clipPath id="clip15">
  <path d="M 235.082031 60 L 279.332031 60 L 279.332031 114.628906 L 235.082031 114.628906 Z M 235.082031 60 "/>
</clipPath>
<clipPath id="clip16">
  <path d="M 235.082031 62 L 279.332031 62 L 279.332031 114.628906 L 235.082031 114.628906 Z M 235.082031 62 "/>
</clipPath>
<clipPath id="clip17">
  <path d="M 235.082031 60 L 279.332031 60 L 279.332031 114.628906 L 235.082031 114.628906 Z M 235.082031 60 "/>
</clipPath>
<clipPath id="clip18">
  <path d="M 241 43.378906 L 274 43.378906 L 274 102 L 241 102 Z M 241 43.378906 "/>
</clipPath>
<clipPath id="clip19">
  <path d="M 60 158.675781 L 315 158.675781 L 315 323 L 60 323 Z M 60 158.675781 "/>
</clipPath>
<clipPath id="clip20">
  <path d="M 58.296875 158.675781 L 316.296875 158.675781 L 316.296875 324.851562 L 58.296875 324.851562 Z M 58.296875 158.675781 "/>
</clipPath>
<clipPath id="clip21">
  <path d="M 60 158.675781 L 315 158.675781 L 315 160 L 60 160 Z M 60 158.675781 "/>
</clipPath>
<clipPath id="clip22">
  <path d="M 58.296875 158.675781 L 316.296875 158.675781 L 316.296875 162 L 58.296875 162 Z M 58.296875 158.675781 "/>
</clipPath>
<clipPath id="clip23">
  <path d="M 61 158.675781 L 314 158.675781 L 314 323 L 61 323 Z M 61 158.675781 "/>
</clipPath>
<clipPath id="clip24">
  <path d="M 59.417969 158.675781 L 315.917969 158.675781 L 315.917969 323.675781 L 59.417969 323.675781 Z M 59.417969 158.675781 "/>
</clipPath>
<clipPath id="clip25">
  <path d="M 61 158.675781 L 314 158.675781 L 314 161 L 61 161 Z M 61 158.675781 "/>
</clipPath>
<clipPath id="clip26">
  <path d="M 59.417969 158.675781 L 315.917969 158.675781 L 315.917969 163 L 59.417969 163 Z M 59.417969 158.675781 "/>
</clipPath>
<clipPath id="clip27">
  <path d="M 62 161.597656 L 312 161.597656 L 312 319 L 62 319 Z M 62 161.597656 "/>
</clipPath>
<clipPath id="clip28">
  <path d="M 60.554688 161.597656 L 313.304688 161.597656 L 313.304688 320.597656 L 60.554688 320.597656 Z M 60.554688 161.597656 "/>
</clipPath>
<clipPath id="clip29">
  <path d="M 64 161.597656 L 311 161.597656 L 311 317 L 64 317 Z M 64 161.597656 "/>
</clipPath>
<clipPath id="clip30">
  <path d="M 62.082031 161.597656 L 312.582031 161.597656 L 312.582031 318.734375 L 62.082031 318.734375 Z M 62.082031 161.597656 "/>
</clipPath>
<clipPath id="clip31">
  <path d="M 65 161.597656 L 309 161.597656 L 309 316 L 65 316 Z M 65 161.597656 "/>
</clipPath>
<clipPath id="clip32">
  <path d="M 63.089844 161.597656 L 310.589844 161.597656 L 310.589844 317.597656 L 63.089844 317.597656 Z M 63.089844 161.597656 "/>
</clipPath>
<clipPath id="clip33">
  <path d="M 67 161.597656 L 308 161.597656 L 308 314 L 67 314 Z M 67 161.597656 "/>
</clipPath>
<clipPath id="clip34">
  <path d="M 66 161.597656 L 309.511719 161.597656 L 309.511719 314.597656 L 66 314.597656 Z M 66 161.597656 "/>
</clipPath>
<clipPath id="clip35">
  <path d="M 70 161.597656 L 305 161.597656 L 305 311 L 70 311 Z M 70 161.597656 "/>
</clipPath>
<clipPath id="clip36">
  <path d="M 68.359375 161.597656 L 306.859375 161.597656 L 306.859375 311.597656 L 68.359375 311.597656 Z M 68.359375 161.597656 "/>
</clipPath>
<clipPath id="clip37">
  <path d="M 70 165.363281 L 305 165.363281 L 305 314 L 70 314 Z M 70 165.363281 "/>
</clipPath>
<clipPath id="clip38">
  <path d="M 68.359375 165.363281 L 306.859375 165.363281 L 306.859375 315.363281 L 68.359375 315.363281 Z M 68.359375 165.363281 "/>
</clipPath>
<clipPath id="clip39">
  <path d="M 73 161.597656 L 302 161.597656 L 302 307 L 73 307 Z M 73 161.597656 "/>
</clipPath>
<clipPath id="clip40">
  <path d="M 71.535156 161.597656 L 303.285156 161.597656 L 303.285156 307.847656 L 71.535156 307.847656 Z M 71.535156 161.597656 "/>
</clipPath>
<clipPath id="clip41">
  <path d="M 75 161.597656 L 299 161.597656 L 299 303 L 75 303 Z M 75 161.597656 "/>
</clipPath>
<clipPath id="clip42">
  <path d="M 73.554688 161.597656 L 300.804688 161.597656 L 300.804688 304.671875 L 73.554688 304.671875 Z M 73.554688 161.597656 "/>
</clipPath>
<clipPath id="clip43">
  <path d="M 78 161.597656 L 297 161.597656 L 297 300 L 78 300 Z M 78 161.597656 "/>
</clipPath>
<clipPath id="clip44">
  <path d="M 76.210938 161.597656 L 298.210938 161.597656 L 298.210938 300.972656 L 76.210938 300.972656 Z M 76.210938 161.597656 "/>
</clipPath>
<clipPath id="clip45">
  <path d="M 80 160.847656 L 294 160.847656 L 294 296 L 80 296 Z M 80 160.847656 "/>
</clipPath>
<clipPath id="clip46">
  <path d="M 78.054688 160.847656 L 295.554688 160.847656 L 295.554688 297.59375 L 78.054688 297.59375 Z M 78.054688 160.847656 "/>
</clipPath>
<clipPath id="clip47">
  <path d="M 80 175.324219 L 294 175.324219 L 294 311 L 80 311 Z M 80 175.324219 "/>
</clipPath>
<clipPath id="clip48">
  <path d="M 78.054688 175.324219 L 295.554688 175.324219 L 295.554688 312.070312 L 78.054688 312.070312 Z M 78.054688 175.324219 "/>
</clipPath>
<clipPath id="clip49">
  <path d="M 80 172.609375 L 294 172.609375 L 294 308 L 80 308 Z M 80 172.609375 "/>
</clipPath>
<clipPath id="clip50">
  <path d="M 78.054688 172.609375 L 295.554688 172.609375 L 295.554688 309.359375 L 78.054688 309.359375 Z M 78.054688 172.609375 "/>
</clipPath>
<clipPath id="clip51">
  <path d="M 80 169.722656 L 294 169.722656 L 294 305 L 80 305 Z M 80 169.722656 "/>
</clipPath>
<clipPath id="clip52">
  <path d="M 78.054688 169.722656 L 295.554688 169.722656 L 295.554688 306.46875 L 78.054688 306.46875 Z M 78.054688 169.722656 "/>
</clipPath>
<clipPath id="clip53">
  <path d="M 195.441406 206.292969 L 279.441406 206.292969 L 279.441406 290.292969 L 195.441406 290.292969 Z M 195.441406 206.292969 "/>
</clipPath>
<clipPath id="clip54">
  <path d="M 62 280 L 102 280 L 102 323 L 62 323 Z M 62 280 "/>
</clipPath>
<clipPath id="clip55">
  <path d="M 59.992188 289.878906 L 70.355469 280.101562 L 101.234375 312.835938 L 90.871094 322.613281 Z M 59.992188 289.878906 "/>
</clipPath>
<clipPath id="clip56">
  <path d="M 34.609375 271.820312 L 225.554688 91.695312 L 417.003906 294.644531 L 226.058594 474.769531 Z M 34.609375 271.820312 "/>
</clipPath>
<clipPath id="clip57">
  <path d="M 60 280 L 102 280 L 102 323 L 60 323 Z M 60 280 "/>
</clipPath>
<clipPath id="clip58">
  <path d="M 59.992188 289.878906 L 70.355469 280.101562 L 101.234375 312.835938 L 90.871094 322.613281 Z M 59.992188 289.878906 "/>
</clipPath>
<clipPath id="clip59">
  <path d="M 34.609375 271.820312 L 225.554688 91.695312 L 417.003906 294.644531 L 226.058594 474.769531 Z M 34.609375 271.820312 "/>
</clipPath>
<clipPath id="clip60">
  <path d="M 62 280 L 102 280 L 102 323 L 62 323 Z M 62 280 "/>
</clipPath>
<clipPath id="clip61">
  <path d="M 59.992188 289.878906 L 70.355469 280.101562 L 101.234375 312.835938 L 90.871094 322.613281 Z M 59.992188 289.878906 "/>
</clipPath>
<clipPath id="clip62">
  <path d="M 34.609375 271.820312 L 225.554688 91.695312 L 417.003906 294.644531 L 226.058594 474.769531 Z M 34.609375 271.820312 "/>
</clipPath>
<clipPath id="clip63">
  <path d="M 60 280 L 102 280 L 102 323 L 60 323 Z M 60 280 "/>
</clipPath>
<clipPath id="clip64">
  <path d="M 59.992188 289.878906 L 70.355469 280.101562 L 101.234375 312.835938 L 90.871094 322.613281 Z M 59.992188 289.878906 "/>
</clipPath>
<clipPath id="clip65">
  <path d="M 34.609375 271.820312 L 225.554688 91.695312 L 417.003906 294.644531 L 226.058594 474.769531 Z M 34.609375 271.820312 "/>
</clipPath>
<clipPath id="clip66">
  <path d="M 95 280 L 102 280 L 102 284 L 95 284 Z M 95 280 "/>
</clipPath>
<clipPath id="clip67">
  <path d="M 59.992188 289.878906 L 70.355469 280.101562 L 101.234375 312.835938 L 90.871094 322.613281 Z M 59.992188 289.878906 "/>
</clipPath>
<clipPath id="clip68">
  <path d="M 34.609375 271.820312 L 225.554688 91.695312 L 417.003906 294.644531 L 226.058594 474.769531 Z M 34.609375 271.820312 "/>
</clipPath>
<clipPath id="clip69">
  <path d="M 93 280 L 102 280 L 102 286 L 93 286 Z M 93 280 "/>
</clipPath>
<clipPath id="clip70">
  <path d="M 59.992188 289.878906 L 70.355469 280.101562 L 101.234375 312.835938 L 90.871094 322.613281 Z M 59.992188 289.878906 "/>
</clipPath>
<clipPath id="clip71">
  <path d="M 34.609375 271.820312 L 225.554688 91.695312 L 417.003906 294.644531 L 226.058594 474.769531 Z M 34.609375 271.820312 "/>
</clipPath>
<clipPath id="clip72">
  <path d="M 271 281 L 313 281 L 313 323 L 271 323 Z M 271 281 "/>
</clipPath>
<clipPath id="clip73">
  <path d="M 301.855469 279.898438 L 312.316406 289.578125 L 281.753906 322.605469 L 271.292969 312.925781 Z M 301.855469 279.898438 "/>
</clipPath>
<clipPath id="clip74">
  <path d="M 318.152344 253.351562 L 510.820312 431.636719 L 321.328125 636.414062 L 128.660156 458.128906 Z M 318.152344 253.351562 "/>
</clipPath>
<clipPath id="clip75">
  <path d="M 271 279 L 313 279 L 313 323 L 271 323 Z M 271 279 "/>
</clipPath>
<clipPath id="clip76">
  <path d="M 301.855469 279.898438 L 312.316406 289.578125 L 281.753906 322.605469 L 271.292969 312.925781 Z M 301.855469 279.898438 "/>
</clipPath>
<clipPath id="clip77">
  <path d="M 318.152344 253.351562 L 510.820312 431.636719 L 321.328125 636.414062 L 128.660156 458.128906 Z M 318.152344 253.351562 "/>
</clipPath>
<clipPath id="clip78">
  <path d="M 271 281 L 313 281 L 313 323 L 271 323 Z M 271 281 "/>
</clipPath>
<clipPath id="clip79">
  <path d="M 301.855469 279.898438 L 312.316406 289.578125 L 281.753906 322.605469 L 271.292969 312.925781 Z M 301.855469 279.898438 "/>
</clipPath>
<clipPath id="clip80">
  <path d="M 318.152344 253.351562 L 510.820312 431.636719 L 321.328125 636.414062 L 128.660156 458.128906 Z M 318.152344 253.351562 "/>
</clipPath>
<clipPath id="clip81">
  <path d="M 271 279 L 313 279 L 313 323 L 271 323 Z M 271 279 "/>
</clipPath>
<clipPath id="clip82">
  <path d="M 301.855469 279.898438 L 312.316406 289.578125 L 281.753906 322.605469 L 271.292969 312.925781 Z M 301.855469 279.898438 "/>
</clipPath>
<clipPath id="clip83">
  <path d="M 318.152344 253.351562 L 510.820312 431.636719 L 321.328125 636.414062 L 128.660156 458.128906 Z M 318.152344 253.351562 "/>
</clipPath>
<clipPath id="clip84">
  <path d="M 311 313 L 313 313 L 313 323 L 311 323 Z M 311 313 "/>
</clipPath>
<clipPath id="clip85">
  <path d="M 301.855469 279.898438 L 312.316406 289.578125 L 281.753906 322.605469 L 271.292969 312.925781 Z M 301.855469 279.898438 "/>
</clipPath>
<clipPath id="clip86">
  <path d="M 318.152344 253.351562 L 510.820312 431.636719 L 321.328125 636.414062 L 128.660156 458.128906 Z M 318.152344 253.351562 "/>
</clipPath>
<clipPath id="clip87">
  <path d="M 309 311 L 313 311 L 313 323 L 309 323 Z M 309 311 "/>
</clipPath>
<clipPath id="clip88">
  <path d="M 301.855469 279.898438 L 312.316406 289.578125 L 281.753906 322.605469 L 271.292969 312.925781 Z M 301.855469 279.898438 "/>
</clipPath>
<clipPath id="clip89">
  <path d="M 318.152344 253.351562 L 510.820312 431.636719 L 321.328125 636.414062 L 128.660156 458.128906 Z M 318.152344 253.351562 "/>
</clipPath>
<clipPath id="clip90">
  <path d="M 65 138 L 81 138 L 81 185 L 65 185 Z M 65 138 "/>
</clipPath>
<clipPath id="clip91">
  <path d="M 66.339844 138.96875 L 80.585938 139.28125 L 79.597656 184.269531 L 65.351562 183.957031 Z M 66.339844 138.96875 "/>
</clipPath>
<clipPath id="clip92">
  <path d="M 60.945312 108.289062 L 323.378906 114.066406 L 317.242188 393 L 54.804688 387.222656 Z M 60.945312 108.289062 "/>
</clipPath>
</defs>
<g id="surface1">
<path style=" stroke:none;fill-rule:evenodd;fill:rgb(100%,100%,100%);fill-opacity:1;" d="M 316.71875 293.75 C 316.71875 311.148438 302.621094 325.246094 285.230469 325.246094 L 89.660156 325.246094 C 72.269531 325.246094 58.171875 311.148438 58.171875 293.75 L 58.171875 98.132812 C 58.171875 80.730469 72.269531 66.636719 89.660156 66.636719 L 285.230469 66.636719 C 302.621094 66.636719 316.71875 80.730469 316.71875 98.132812 L 316.71875 293.75 "/>
<g clip-path="url(#clip1)" clip-rule="nonzero">
<path style=" stroke:none;fill-rule:nonzero;fill:rgb(21.958923%,71.369934%,100%);fill-opacity:1;" d="M 316.71875 293.75 L 314.613281 293.75 C 314.613281 301.871094 311.328125 309.207031 306.003906 314.535156 C 300.683594 319.859375 293.351562 323.144531 285.230469 323.144531 L 89.660156 323.144531 C 81.535156 323.144531 74.203125 319.859375 68.882812 314.535156 C 63.558594 309.207031 60.273438 301.871094 60.273438 293.75 L 60.273438 98.132812 C 60.273438 90.007812 63.558594 82.675781 68.882812 77.351562 C 74.203125 72.027344 81.535156 68.746094 89.660156 68.742188 L 285.230469 68.742188 C 293.355469 68.746094 300.683594 72.027344 306.007812 77.351562 C 311.328125 82.675781 314.613281 90.007812 314.613281 98.132812 L 314.613281 293.75 L 318.824219 293.75 L 318.824219 98.132812 C 318.824219 79.566406 303.785156 64.53125 285.230469 64.53125 L 89.660156 64.53125 C 71.101562 64.53125 56.0625 79.566406 56.0625 98.132812 L 56.0625 293.75 C 56.0625 312.308594 71.101562 327.355469 89.660156 327.355469 L 285.230469 327.355469 C 303.785156 327.355469 318.824219 312.308594 318.824219 293.75 L 316.71875 293.75 "/>
</g>
<path style=" stroke:none;fill-rule:evenodd;fill:rgb(100%,100%,100%);fill-opacity:1;" d="M 285.230469 66.636719 L 89.660156 66.636719 C 72.269531 66.636719 58.171875 80.730469 58.171875 98.132812 L 58.171875 158.761719 L 316.71875 158.761719 L 316.71875 98.132812 C 316.71875 80.730469 302.621094 66.636719 285.230469 66.636719 "/>
<path style=" stroke:none;fill-rule:nonzero;fill:rgb(21.958923%,71.369934%,100%);fill-opacity:1;" d="M 285.230469 66.636719 L 285.230469 64.53125 L 89.660156 64.53125 C 71.101562 64.53125 56.0625 79.566406 56.0625 98.132812 L 56.0625 158.761719 C 56.0625 159.3125 56.289062 159.859375 56.679688 160.25 C 57.074219 160.640625 57.613281 160.867188 58.171875 160.867188 L 316.71875 160.867188 C 317.277344 160.867188 317.808594 160.648438 318.203125 160.25 C 318.605469 159.851562 318.824219 159.324219 318.824219 158.761719 L 318.824219 98.132812 C 318.824219 79.566406 303.785156 64.53125 285.230469 64.53125 L 285.230469 68.742188 C 293.355469 68.746094 300.683594 72.027344 306.007812 77.351562 C 311.328125 82.675781 314.613281 90.007812 314.613281 98.132812 L 314.613281 156.652344 L 60.273438 156.652344 L 60.273438 98.132812 C 60.273438 90.007812 63.558594 82.675781 68.882812 77.351562 C 74.203125 72.027344 81.535156 68.746094 89.660156 68.742188 L 285.230469 68.742188 L 285.230469 66.636719 "/>
<path style=" stroke:none;fill-rule:evenodd;fill:rgb(21.958923%,71.369934%,100%);fill-opacity:1;" d="M 134.28125 97.332031 C 134.28125 106.925781 126.523438 114.707031 116.933594 114.707031 C 107.351562 114.707031 99.574219 106.925781 99.574219 97.332031 C 99.574219 87.753906 107.351562 79.96875 116.933594 79.96875 C 126.523438 79.96875 134.28125 87.753906 134.28125 97.332031 "/>
<path style=" stroke:none;fill-rule:nonzero;fill:rgb(21.958923%,71.369934%,100%);fill-opacity:1;" d="M 134.28125 97.332031 L 132.175781 97.332031 C 132.175781 101.554688 130.476562 105.359375 127.714844 108.128906 C 124.949219 110.894531 121.152344 112.597656 116.933594 112.597656 C 112.71875 112.597656 108.917969 110.894531 106.152344 108.128906 C 103.386719 105.359375 101.683594 101.554688 101.679688 97.332031 C 101.679688 93.117188 103.386719 89.316406 106.152344 86.546875 C 108.917969 83.78125 112.71875 82.074219 116.933594 82.070312 C 121.152344 82.074219 124.949219 83.78125 127.714844 86.546875 C 130.476562 89.3125 132.175781 93.117188 132.175781 97.332031 L 136.386719 97.332031 C 136.386719 91.96875 134.210938 87.089844 130.691406 83.570312 C 127.179688 80.046875 122.304688 77.859375 116.933594 77.859375 C 106.1875 77.863281 97.472656 86.589844 97.46875 97.332031 C 97.472656 108.089844 106.1875 116.808594 116.933594 116.808594 C 127.6875 116.808594 136.386719 108.085938 136.386719 97.332031 L 134.28125 97.332031 "/>
<path style=" stroke:none;fill-rule:evenodd;fill:rgb(100%,100%,100%);fill-opacity:1;" d="M 130.710938 90.402344 C 130.710938 98.015625 124.550781 104.179688 116.933594 104.179688 C 109.320312 104.179688 103.132812 98.015625 103.132812 90.402344 L 103.132812 63.488281 C 103.132812 55.875 109.320312 49.699219 116.933594 49.699219 C 124.550781 49.699219 130.710938 55.875 130.710938 63.488281 L 130.710938 90.402344 "/>
<g clip-path="url(#clip2)" clip-rule="nonzero">
<path style=" stroke:none;fill-rule:nonzero;fill:rgb(21.958923%,71.369934%,100%);fill-opacity:1;" d="M 130.710938 90.402344 L 128.605469 90.402344 C 128.605469 93.636719 127.304688 96.539062 125.1875 98.65625 C 123.070312 100.773438 120.167969 102.074219 116.933594 102.078125 C 113.699219 102.074219 110.785156 100.773438 108.660156 98.65625 C 106.542969 96.535156 105.238281 93.632812 105.234375 90.402344 L 105.234375 63.488281 C 105.238281 60.257812 106.542969 57.347656 108.664062 55.226562 C 110.785156 53.109375 113.699219 51.804688 116.933594 51.804688 C 120.164062 51.804688 123.070312 53.109375 125.1875 55.226562 C 127.304688 57.347656 128.605469 60.257812 128.605469 63.488281 L 128.605469 90.402344 L 132.816406 90.402344 L 132.816406 63.488281 C 132.816406 54.714844 125.710938 47.59375 116.933594 47.589844 C 108.152344 47.59375 101.027344 54.707031 101.027344 63.488281 L 101.027344 90.402344 C 101.023438 94.785156 102.8125 98.769531 105.6875 101.636719 C 108.5625 104.507812 112.550781 106.289062 116.933594 106.289062 C 125.707031 106.289062 132.816406 99.175781 132.816406 90.402344 L 130.710938 90.402344 "/>
</g>
<path style=" stroke:none;fill-rule:evenodd;fill:rgb(21.958923%,71.369934%,100%);fill-opacity:1;" d="M 275.332031 97.332031 C 275.332031 106.925781 267.554688 114.707031 257.96875 114.707031 C 248.375 114.707031 240.609375 106.925781 240.609375 97.332031 C 240.609375 87.753906 248.375 79.96875 257.96875 79.96875 C 267.554688 79.96875 275.332031 87.753906 275.332031 97.332031 "/>
<path style=" stroke:none;fill-rule:nonzero;fill:rgb(21.958923%,71.369934%,100%);fill-opacity:1;" d="M 275.332031 97.332031 L 273.226562 97.332031 C 273.226562 101.554688 271.523438 105.359375 268.757812 108.128906 C 265.988281 110.894531 262.183594 112.597656 257.96875 112.597656 C 253.75 112.597656 249.949219 110.894531 247.179688 108.128906 C 244.417969 105.359375 242.714844 101.554688 242.714844 97.332031 C 242.714844 93.117188 244.417969 89.316406 247.179688 86.546875 C 249.949219 83.78125 253.75 82.074219 257.96875 82.070312 C 262.183594 82.074219 265.984375 83.78125 268.757812 86.546875 C 271.523438 89.316406 273.226562 93.117188 273.226562 97.332031 L 277.4375 97.332031 C 277.4375 86.589844 268.71875 77.863281 257.96875 77.859375 C 247.210938 77.863281 238.503906 86.589844 238.503906 97.332031 C 238.503906 108.085938 247.210938 116.808594 257.96875 116.808594 C 268.71875 116.808594 277.4375 108.089844 277.4375 97.332031 L 275.332031 97.332031 "/>
<path style=" stroke:none;fill-rule:evenodd;fill:rgb(100%,100%,100%);fill-opacity:1;" d="M 271.742188 90.402344 C 271.742188 98.015625 265.582031 104.179688 257.957031 104.179688 C 250.351562 104.179688 244.191406 98.015625 244.191406 90.402344 L 244.191406 63.488281 C 244.191406 55.875 250.351562 49.699219 257.957031 49.699219 C 265.582031 49.699219 271.742188 55.875 271.742188 63.488281 L 271.742188 90.402344 "/>
<g clip-path="url(#clip3)" clip-rule="nonzero">
<path style=" stroke:none;fill-rule:nonzero;fill:rgb(21.958923%,71.369934%,100%);fill-opacity:1;" d="M 271.742188 90.402344 L 269.640625 90.402344 C 269.640625 96.851562 264.417969 102.078125 257.957031 102.078125 C 254.730469 102.074219 251.828125 100.773438 249.707031 98.65625 C 247.597656 96.539062 246.296875 93.636719 246.292969 90.402344 L 246.292969 63.488281 C 246.296875 60.257812 247.597656 57.347656 249.710938 55.226562 C 251.828125 53.109375 254.730469 51.804688 257.957031 51.804688 C 261.195312 51.804688 264.101562 53.109375 266.222656 55.226562 C 268.335938 57.347656 269.636719 60.257812 269.640625 63.488281 L 269.640625 90.402344 L 273.851562 90.402344 L 273.851562 63.488281 C 273.851562 54.714844 266.746094 47.589844 257.957031 47.589844 C 249.183594 47.59375 242.085938 54.714844 242.085938 63.488281 L 242.085938 90.402344 C 242.085938 99.175781 249.183594 106.289062 257.957031 106.289062 C 262.339844 106.289062 266.332031 104.507812 269.195312 101.636719 C 272.070312 98.769531 273.851562 94.785156 273.851562 90.402344 L 271.742188 90.402344 "/>
</g>
<g clip-path="url(#clip4)" clip-rule="nonzero">
<path style=" stroke:none;fill-rule:evenodd;fill:rgb(21.958923%,71.369934%,100%);fill-opacity:1;" d="M 316.546875 294.222656 C 316.546875 311.570312 302.488281 325.632812 285.144531 325.632812 L 90.132812 325.632812 C 72.789062 325.632812 58.734375 311.570312 58.734375 294.222656 L 58.734375 99.128906 C 58.734375 81.773438 72.789062 67.71875 90.132812 67.71875 L 285.144531 67.71875 C 302.488281 67.71875 316.546875 81.773438 316.546875 99.128906 L 316.546875 294.222656 "/>
</g>
<g clip-path="url(#clip5)" clip-rule="nonzero">
<path style=" stroke:none;fill-rule:nonzero;fill:rgb(21.958923%,71.369934%,100%);fill-opacity:1;" d="M 316.546875 294.222656 L 314.445312 294.222656 C 314.445312 302.324219 311.167969 309.636719 305.863281 314.949219 C 300.554688 320.257812 293.242188 323.535156 285.144531 323.535156 L 90.132812 323.535156 C 82.03125 323.535156 74.722656 320.257812 69.414062 314.949219 C 64.105469 309.636719 60.832031 302.324219 60.832031 294.222656 L 60.832031 99.128906 C 60.832031 91.027344 64.105469 83.710938 69.414062 78.402344 C 74.722656 73.09375 82.03125 69.820312 90.132812 69.816406 L 285.144531 69.816406 C 293.246094 69.820312 300.554688 73.09375 305.863281 78.402344 C 311.167969 83.710938 314.445312 91.027344 314.445312 99.128906 L 314.445312 294.222656 L 318.644531 294.222656 L 318.644531 99.128906 C 318.644531 80.613281 303.648438 65.617188 285.144531 65.617188 L 90.132812 65.617188 C 71.628906 65.617188 56.632812 80.613281 56.632812 99.128906 L 56.632812 294.222656 C 56.632812 312.730469 71.628906 327.738281 90.132812 327.738281 L 285.144531 327.738281 C 303.648438 327.738281 318.644531 312.730469 318.644531 294.222656 L 316.546875 294.222656 "/>
</g>
<path style=" stroke:none;fill-rule:evenodd;fill:rgb(21.958923%,71.369934%,100%);fill-opacity:1;" d="M 285.144531 67.71875 L 90.132812 67.71875 C 72.789062 67.71875 58.734375 81.773438 58.734375 99.128906 L 58.734375 159.59375 L 316.546875 159.59375 L 316.546875 99.128906 C 316.546875 81.773438 302.488281 67.71875 285.144531 67.71875 "/>
<g clip-path="url(#clip6)" clip-rule="nonzero">
<path style=" stroke:none;fill-rule:nonzero;fill:rgb(21.958923%,71.369934%,100%);fill-opacity:1;" d="M 285.144531 67.71875 L 285.144531 65.617188 L 90.132812 65.617188 C 71.628906 65.617188 56.632812 80.613281 56.632812 99.128906 L 56.632812 159.59375 C 56.632812 160.144531 56.855469 160.691406 57.25 161.082031 C 57.640625 161.46875 58.179688 161.695312 58.734375 161.695312 L 316.546875 161.695312 C 317.101562 161.695312 317.632812 161.476562 318.027344 161.082031 C 318.425781 160.683594 318.644531 160.15625 318.644531 159.59375 L 318.644531 99.128906 C 318.644531 80.613281 303.648438 65.617188 285.144531 65.617188 L 285.144531 69.816406 C 293.246094 69.820312 300.554688 73.09375 305.863281 78.402344 C 311.167969 83.710938 314.445312 91.027344 314.445312 99.128906 L 314.445312 157.492188 L 60.832031 157.492188 L 60.832031 99.128906 C 60.832031 91.027344 64.105469 83.710938 69.414062 78.402344 C 74.722656 73.09375 82.03125 69.820312 90.132812 69.816406 L 285.144531 69.816406 L 285.144531 67.71875 "/>
</g>
<path style=" stroke:none;fill-rule:evenodd;fill:rgb(21.958923%,71.369934%,100%);fill-opacity:1;" d="M 134.628906 98.328125 C 134.628906 107.898438 126.890625 115.65625 117.328125 115.65625 C 107.777344 115.65625 100.019531 107.898438 100.019531 98.328125 C 100.019531 88.777344 107.777344 81.011719 117.328125 81.011719 C 126.890625 81.011719 134.628906 88.777344 134.628906 98.328125 "/>
<path style=" stroke:none;fill-rule:nonzero;fill:rgb(21.958923%,71.369934%,100%);fill-opacity:1;" d="M 134.628906 98.328125 L 132.527344 98.328125 C 132.527344 102.539062 130.832031 106.335938 128.078125 109.097656 C 125.320312 111.855469 121.535156 113.554688 117.328125 113.554688 C 113.125 113.554688 109.335938 111.855469 106.578125 109.097656 C 103.820312 106.335938 102.121094 102.539062 102.117188 98.328125 C 102.117188 94.128906 103.820312 90.335938 106.578125 87.574219 C 109.335938 84.8125 113.125 83.113281 117.328125 83.109375 C 121.535156 83.113281 125.320312 84.8125 128.078125 87.574219 C 130.832031 90.335938 132.527344 94.128906 132.527344 98.328125 L 136.726562 98.328125 C 136.726562 92.980469 134.554688 88.117188 131.050781 84.605469 C 127.546875 81.09375 122.683594 78.910156 117.328125 78.910156 C 106.613281 78.914062 97.921875 87.617188 97.917969 98.328125 C 97.921875 109.0625 106.613281 117.757812 117.328125 117.757812 C 128.054688 117.757812 136.726562 109.058594 136.726562 98.328125 L 134.628906 98.328125 "/>
<path style=" stroke:none;fill-rule:evenodd;fill:rgb(21.958923%,71.369934%,100%);fill-opacity:1;" d="M 131.066406 91.417969 C 131.066406 99.011719 124.921875 105.160156 117.328125 105.160156 C 109.734375 105.160156 103.566406 99.011719 103.566406 91.417969 L 103.566406 64.578125 C 103.566406 56.984375 109.734375 50.824219 117.328125 50.824219 C 124.921875 50.824219 131.066406 56.984375 131.066406 64.578125 L 131.066406 91.417969 "/>
<g clip-path="url(#clip7)" clip-rule="nonzero">
<path style=" stroke:none;fill-rule:nonzero;fill:rgb(21.958923%,71.369934%,100%);fill-opacity:1;" d="M 131.066406 91.417969 L 128.96875 91.417969 C 128.964844 94.644531 127.667969 97.539062 125.558594 99.652344 C 123.449219 101.761719 120.554688 103.058594 117.328125 103.0625 C 114.105469 103.058594 111.199219 101.761719 109.078125 99.652344 C 106.96875 97.535156 105.667969 94.640625 105.664062 91.417969 L 105.664062 64.578125 C 105.667969 61.355469 106.96875 58.453125 109.082031 56.335938 C 111.199219 54.222656 114.105469 52.921875 117.328125 52.921875 C 120.550781 52.921875 123.449219 54.222656 125.558594 56.335938 C 127.667969 58.453125 128.964844 61.355469 128.96875 64.578125 L 128.96875 91.417969 L 133.164062 91.417969 L 133.164062 64.578125 C 133.164062 55.828125 126.082031 48.726562 117.328125 48.722656 C 108.574219 48.726562 101.46875 55.820312 101.46875 64.578125 L 101.46875 91.417969 C 101.464844 95.789062 103.246094 99.765625 106.117188 102.625 C 108.980469 105.488281 112.960938 107.261719 117.328125 107.261719 C 126.078125 107.261719 133.164062 100.171875 133.164062 91.417969 L 131.066406 91.417969 "/>
</g>
<path style=" stroke:none;fill-rule:evenodd;fill:rgb(21.958923%,71.369934%,100%);fill-opacity:1;" d="M 275.277344 98.328125 C 275.277344 107.898438 267.519531 115.65625 257.964844 115.65625 C 248.394531 115.65625 240.652344 107.898438 240.652344 98.328125 C 240.652344 88.777344 248.394531 81.011719 257.964844 81.011719 C 267.519531 81.011719 275.277344 88.777344 275.277344 98.328125 "/>
<path style=" stroke:none;fill-rule:nonzero;fill:rgb(21.958923%,71.369934%,100%);fill-opacity:1;" d="M 275.277344 98.328125 L 273.175781 98.328125 C 273.175781 102.539062 271.476562 106.335938 268.71875 109.097656 C 265.960938 111.855469 262.167969 113.554688 257.964844 113.554688 C 253.753906 113.554688 249.964844 111.855469 247.203125 109.097656 C 244.449219 106.335938 242.75 102.539062 242.75 98.328125 C 242.75 94.128906 244.449219 90.335938 247.203125 87.574219 C 249.964844 84.8125 253.753906 83.113281 257.964844 83.109375 C 262.167969 83.113281 265.957031 84.8125 268.71875 87.574219 C 271.476562 90.335938 273.175781 94.128906 273.175781 98.328125 L 277.375 98.328125 C 277.375 87.617188 268.679688 78.914062 257.964844 78.910156 C 247.238281 78.914062 238.554688 87.617188 238.554688 98.328125 C 238.554688 109.058594 247.238281 117.757812 257.964844 117.757812 C 268.679688 117.757812 277.375 109.0625 277.375 98.328125 L 275.277344 98.328125 "/>
<path style=" stroke:none;fill-rule:evenodd;fill:rgb(21.958923%,71.369934%,100%);fill-opacity:1;" d="M 271.699219 91.417969 C 271.699219 99.011719 265.554688 105.160156 257.949219 105.160156 C 250.367188 105.160156 244.222656 99.011719 244.222656 91.417969 L 244.222656 64.578125 C 244.222656 56.984375 250.367188 50.824219 257.949219 50.824219 C 265.554688 50.824219 271.699219 56.984375 271.699219 64.578125 L 271.699219 91.417969 "/>
<g clip-path="url(#clip8)" clip-rule="nonzero">
<path style=" stroke:none;fill-rule:nonzero;fill:rgb(21.958923%,71.369934%,100%);fill-opacity:1;" d="M 271.699219 91.417969 L 269.601562 91.417969 C 269.601562 97.851562 264.394531 103.0625 257.949219 103.0625 C 254.730469 103.058594 251.835938 101.761719 249.726562 99.652344 C 247.621094 97.539062 246.324219 94.644531 246.320312 91.417969 L 246.320312 64.578125 C 246.324219 61.355469 247.621094 58.453125 249.730469 56.335938 C 251.835938 54.222656 254.730469 52.921875 257.949219 52.921875 C 261.179688 52.925781 264.078125 54.222656 266.191406 56.335938 C 268.300781 58.453125 269.597656 61.355469 269.601562 64.578125 L 269.601562 91.417969 L 273.800781 91.417969 L 273.800781 64.578125 C 273.800781 55.828125 266.714844 48.722656 257.949219 48.722656 C 249.203125 48.726562 242.125 55.828125 242.125 64.578125 L 242.125 91.417969 C 242.125 100.171875 249.203125 107.261719 257.949219 107.261719 C 262.320312 107.261719 266.300781 105.488281 269.160156 102.625 C 272.023438 99.765625 273.800781 95.789062 273.800781 91.417969 L 271.699219 91.417969 "/>
</g>
<g clip-path="url(#clip9)" clip-rule="nonzero">
<path style=" stroke:none;fill-rule:evenodd;fill:rgb(21.958923%,71.369934%,100%);fill-opacity:1;" d="M 316.4375 288.917969 C 316.4375 306.265625 302.382812 320.328125 285.039062 320.328125 L 90.023438 320.328125 C 72.679688 320.328125 58.625 306.265625 58.625 288.917969 L 58.625 93.824219 C 58.625 76.46875 72.679688 62.414062 90.023438 62.414062 L 285.039062 62.414062 C 302.382812 62.414062 316.4375 76.46875 316.4375 93.824219 L 316.4375 288.917969 "/>
</g>
<g clip-path="url(#clip10)" clip-rule="nonzero">
<path style=" stroke:none;fill-rule:nonzero;fill:rgb(100%,100%,100%);fill-opacity:1;" d="M 316.4375 288.917969 L 314.335938 288.917969 C 314.335938 297.019531 311.0625 304.332031 305.753906 309.644531 C 300.445312 314.953125 293.136719 318.230469 285.039062 318.230469 L 90.023438 318.230469 C 81.921875 318.230469 74.613281 314.953125 69.304688 309.644531 C 63.996094 304.332031 60.722656 297.019531 60.722656 288.917969 L 60.722656 93.824219 C 60.722656 85.722656 63.996094 78.40625 69.304688 73.097656 C 74.613281 67.789062 81.921875 64.515625 90.023438 64.511719 L 285.039062 64.511719 C 293.140625 64.515625 300.445312 67.789062 305.757812 73.097656 C 311.0625 78.40625 314.335938 85.722656 314.335938 93.824219 L 314.335938 288.917969 L 318.535156 288.917969 L 318.535156 93.824219 C 318.535156 75.308594 303.539062 60.3125 285.039062 60.3125 L 90.023438 60.3125 C 71.519531 60.3125 56.523438 75.308594 56.523438 93.824219 L 56.523438 288.917969 C 56.523438 307.425781 71.519531 322.433594 90.023438 322.433594 L 285.039062 322.433594 C 303.539062 322.433594 318.535156 307.425781 318.535156 288.917969 L 316.4375 288.917969 "/>
</g>
<g clip-path="url(#clip11)" clip-rule="nonzero">
<path style=" stroke:none;fill-rule:evenodd;fill:rgb(21.958923%,71.369934%,100%);fill-opacity:1;" d="M 285.039062 62.414062 L 90.023438 62.414062 C 72.679688 62.414062 58.625 76.46875 58.625 93.824219 L 58.625 154.289062 L 316.4375 154.289062 L 316.4375 93.824219 C 316.4375 76.46875 302.382812 62.414062 285.039062 62.414062 "/>
</g>
<g clip-path="url(#clip12)" clip-rule="nonzero">
<path style=" stroke:none;fill-rule:nonzero;fill:rgb(100%,100%,100%);fill-opacity:1;" d="M 285.039062 62.414062 L 285.039062 60.3125 L 90.023438 60.3125 C 71.519531 60.3125 56.523438 75.308594 56.523438 93.824219 L 56.523438 154.289062 C 56.523438 154.839844 56.746094 155.386719 57.140625 155.777344 C 57.53125 156.164062 58.070312 156.390625 58.625 156.390625 L 316.4375 156.390625 C 316.996094 156.390625 317.523438 156.171875 317.917969 155.777344 C 318.316406 155.378906 318.535156 154.851562 318.535156 154.289062 L 318.535156 93.824219 C 318.535156 75.308594 303.539062 60.3125 285.039062 60.3125 L 285.039062 64.511719 C 293.140625 64.515625 300.445312 67.789062 305.757812 73.097656 C 311.0625 78.40625 314.335938 85.722656 314.335938 93.824219 L 314.335938 152.1875 L 60.722656 152.1875 L 60.722656 93.824219 C 60.722656 85.722656 63.996094 78.40625 69.304688 73.097656 C 74.613281 67.789062 81.921875 64.515625 90.023438 64.511719 L 285.039062 64.511719 L 285.039062 62.414062 "/>
</g>
<path style=" stroke:none;fill-rule:evenodd;fill:rgb(100%,100%,100%);fill-opacity:1;" d="M 134.519531 93.023438 C 134.519531 102.59375 126.78125 110.351562 117.21875 110.351562 C 107.667969 110.351562 99.910156 102.59375 99.910156 93.023438 C 99.910156 83.472656 107.667969 75.707031 117.21875 75.707031 C 126.78125 75.707031 134.519531 83.472656 134.519531 93.023438 "/>
<path style=" stroke:none;fill-rule:nonzero;fill:rgb(100%,100%,100%);fill-opacity:1;" d="M 134.519531 93.023438 L 132.417969 93.023438 C 132.417969 97.234375 130.722656 101.03125 127.96875 103.792969 C 125.210938 106.550781 121.425781 108.25 117.21875 108.25 C 113.019531 108.25 109.226562 106.550781 106.46875 103.792969 C 103.710938 101.03125 102.011719 97.234375 102.007812 93.023438 C 102.007812 88.824219 103.710938 85.03125 106.46875 82.265625 C 109.226562 79.507812 113.019531 77.808594 117.21875 77.804688 C 121.425781 77.808594 125.210938 79.507812 127.96875 82.265625 C 130.722656 85.027344 132.417969 88.824219 132.417969 93.023438 L 136.617188 93.023438 C 136.617188 87.675781 134.445312 82.8125 130.941406 79.300781 C 127.4375 75.789062 122.574219 73.605469 117.21875 73.605469 C 106.503906 73.609375 97.8125 82.3125 97.808594 93.023438 C 97.8125 103.757812 106.503906 112.449219 117.21875 112.449219 C 127.945312 112.449219 136.617188 103.753906 136.617188 93.023438 L 134.519531 93.023438 "/>
<path style=" stroke:none;fill-rule:evenodd;fill:rgb(21.958923%,71.369934%,100%);fill-opacity:1;" d="M 130.957031 86.113281 C 130.957031 93.707031 124.8125 99.855469 117.21875 99.855469 C 109.625 99.855469 103.457031 93.707031 103.457031 86.113281 L 103.457031 59.273438 C 103.457031 51.679688 109.625 45.519531 117.21875 45.519531 C 124.8125 45.519531 130.957031 51.679688 130.957031 59.273438 L 130.957031 86.113281 "/>
<g clip-path="url(#clip13)" clip-rule="nonzero">
<path style=" stroke:none;fill-rule:nonzero;fill:rgb(100%,100%,100%);fill-opacity:1;" d="M 130.957031 86.113281 L 128.859375 86.113281 C 128.855469 89.339844 127.558594 92.234375 125.453125 94.347656 C 123.339844 96.457031 120.445312 97.753906 117.21875 97.757812 C 113.996094 97.753906 111.089844 96.457031 108.972656 94.347656 C 106.859375 92.230469 105.558594 89.335938 105.554688 86.113281 L 105.554688 59.273438 C 105.558594 56.050781 106.859375 53.148438 108.976562 51.03125 C 111.089844 48.917969 113.996094 47.617188 117.21875 47.617188 C 120.441406 47.617188 123.339844 48.917969 125.453125 51.03125 C 127.558594 53.148438 128.855469 56.050781 128.859375 59.273438 L 128.859375 86.113281 L 133.054688 86.113281 L 133.054688 59.273438 C 133.054688 50.523438 125.972656 43.421875 117.21875 43.417969 C 108.464844 43.421875 101.359375 50.515625 101.359375 59.273438 L 101.359375 86.113281 C 101.355469 90.484375 103.136719 94.460938 106.007812 97.320312 C 108.875 100.183594 112.851562 101.957031 117.21875 101.957031 C 125.96875 101.957031 133.054688 94.867188 133.054688 86.113281 L 130.957031 86.113281 "/>
</g>
<g clip-path="url(#clip14)" clip-rule="nonzero">
<path style=" stroke:none;fill-rule:evenodd;fill:rgb(21.958923%,71.369934%,100%);fill-opacity:1;" d="M 457 288.917969 C 457 306.265625 442.945312 320.328125 425.601562 320.328125 L 230.585938 320.328125 C 213.246094 320.328125 199.1875 306.265625 199.1875 288.917969 L 199.1875 93.824219 C 199.1875 76.46875 213.246094 62.414062 230.585938 62.414062 L 425.601562 62.414062 C 442.945312 62.414062 457 76.46875 457 93.824219 L 457 288.917969 "/>
</g>
<g clip-path="url(#clip15)" clip-rule="nonzero">
<path style=" stroke:none;fill-rule:nonzero;fill:rgb(100%,100%,100%);fill-opacity:1;" d="M 457 288.917969 L 454.898438 288.917969 C 454.898438 297.019531 451.625 304.332031 446.316406 309.644531 C 441.011719 314.953125 433.699219 318.230469 425.601562 318.230469 L 230.585938 318.230469 C 222.484375 318.230469 215.175781 314.953125 209.867188 309.644531 C 204.558594 304.332031 201.285156 297.019531 201.285156 288.917969 L 201.285156 93.824219 C 201.285156 85.722656 204.558594 78.40625 209.867188 73.097656 C 215.175781 67.789062 222.484375 64.515625 230.585938 64.511719 L 425.601562 64.511719 C 433.703125 64.515625 441.011719 67.789062 446.320312 73.097656 C 451.625 78.40625 454.898438 85.722656 454.898438 93.824219 L 454.898438 288.917969 L 459.097656 288.917969 L 459.097656 93.824219 C 459.097656 75.308594 444.105469 60.3125 425.601562 60.3125 L 230.585938 60.3125 C 212.082031 60.3125 197.085938 75.308594 197.085938 93.824219 L 197.085938 288.917969 C 197.085938 307.425781 212.082031 322.433594 230.585938 322.433594 L 425.601562 322.433594 C 444.105469 322.433594 459.097656 307.425781 459.097656 288.917969 L 457 288.917969 "/>
</g>
<g clip-path="url(#clip16)" clip-rule="nonzero">
<path style=" stroke:none;fill-rule:evenodd;fill:rgb(21.958923%,71.369934%,100%);fill-opacity:1;" d="M 425.601562 62.414062 L 230.585938 62.414062 C 213.246094 62.414062 199.1875 76.46875 199.1875 93.824219 L 199.1875 154.289062 L 457 154.289062 L 457 93.824219 C 457 76.46875 442.945312 62.414062 425.601562 62.414062 "/>
</g>
<g clip-path="url(#clip17)" clip-rule="nonzero">
<path style=" stroke:none;fill-rule:nonzero;fill:rgb(100%,100%,100%);fill-opacity:1;" d="M 425.601562 62.414062 L 425.601562 60.3125 L 230.585938 60.3125 C 212.082031 60.3125 197.085938 75.308594 197.085938 93.824219 L 197.085938 154.289062 C 197.085938 154.839844 197.3125 155.386719 197.703125 155.777344 C 198.09375 156.164062 198.632812 156.390625 199.1875 156.390625 L 457 156.390625 C 457.558594 156.390625 458.089844 156.171875 458.484375 155.777344 C 458.882812 155.378906 459.097656 154.851562 459.097656 154.289062 L 459.097656 93.824219 C 459.097656 75.308594 444.105469 60.3125 425.601562 60.3125 L 425.601562 64.511719 C 433.703125 64.515625 441.011719 67.789062 446.320312 73.097656 C 451.625 78.40625 454.898438 85.722656 454.898438 93.824219 L 454.898438 152.1875 L 201.285156 152.1875 L 201.285156 93.824219 C 201.285156 85.722656 204.558594 78.40625 209.867188 73.097656 C 215.175781 67.789062 222.484375 64.515625 230.585938 64.511719 L 425.601562 64.511719 L 425.601562 62.414062 "/>
</g>
<path style=" stroke:none;fill-rule:evenodd;fill:rgb(100%,100%,100%);fill-opacity:1;" d="M 275.082031 93.023438 C 275.082031 102.59375 267.34375 110.351562 257.785156 110.351562 C 248.230469 110.351562 240.472656 102.59375 240.472656 93.023438 C 240.472656 83.472656 248.230469 75.707031 257.785156 75.707031 C 267.34375 75.707031 275.082031 83.472656 275.082031 93.023438 "/>
<path style=" stroke:none;fill-rule:nonzero;fill:rgb(100%,100%,100%);fill-opacity:1;" d="M 275.082031 93.023438 L 272.980469 93.023438 C 272.980469 97.234375 271.285156 101.03125 268.53125 103.792969 C 265.777344 106.550781 261.988281 108.25 257.785156 108.25 C 253.582031 108.25 249.792969 106.550781 247.03125 103.792969 C 244.273438 101.03125 242.574219 97.234375 242.570312 93.023438 C 242.570312 88.824219 244.273438 85.03125 247.03125 82.265625 C 249.792969 79.507812 253.582031 77.808594 257.785156 77.804688 C 261.988281 77.808594 265.777344 79.507812 268.53125 82.265625 C 271.285156 85.027344 272.980469 88.824219 272.980469 93.023438 L 277.179688 93.023438 C 277.179688 87.675781 275.011719 82.8125 271.503906 79.300781 C 268 75.789062 263.136719 73.605469 257.785156 73.605469 C 247.066406 73.609375 238.375 82.3125 238.371094 93.023438 C 238.375 103.757812 247.066406 112.449219 257.785156 112.449219 C 268.507812 112.449219 277.179688 103.753906 277.179688 93.023438 L 275.082031 93.023438 "/>
<path style=" stroke:none;fill-rule:evenodd;fill:rgb(21.958923%,71.369934%,100%);fill-opacity:1;" d="M 271.523438 86.113281 C 271.523438 93.707031 265.378906 99.855469 257.785156 99.855469 C 250.191406 99.855469 244.019531 93.707031 244.019531 86.113281 L 244.019531 59.273438 C 244.019531 51.679688 250.191406 45.519531 257.785156 45.519531 C 265.378906 45.519531 271.523438 51.679688 271.523438 59.273438 L 271.523438 86.113281 "/>
<g clip-path="url(#clip18)" clip-rule="nonzero">
<path style=" stroke:none;fill-rule:nonzero;fill:rgb(100%,100%,100%);fill-opacity:1;" d="M 271.523438 86.113281 L 269.425781 86.113281 C 269.421875 89.339844 268.125 92.234375 266.015625 94.347656 C 263.902344 96.457031 261.007812 97.753906 257.785156 97.757812 C 254.558594 97.753906 251.652344 96.457031 249.535156 94.347656 C 247.421875 92.230469 246.121094 89.335938 246.117188 86.113281 L 246.117188 59.273438 C 246.121094 56.050781 247.421875 53.148438 249.539062 51.03125 C 251.652344 48.917969 254.558594 47.617188 257.785156 47.617188 C 261.003906 47.617188 263.902344 48.917969 266.015625 51.03125 C 268.125 53.148438 269.421875 56.050781 269.425781 59.273438 L 269.425781 86.113281 L 273.621094 86.113281 L 273.621094 59.273438 C 273.621094 50.523438 266.535156 43.421875 257.785156 43.417969 C 249.027344 43.421875 241.921875 50.515625 241.921875 59.273438 L 241.921875 86.113281 C 241.917969 90.484375 243.703125 94.460938 246.570312 97.320312 C 249.4375 100.183594 253.414062 101.957031 257.785156 101.957031 C 266.53125 101.957031 273.621094 94.867188 273.621094 86.113281 L 271.523438 86.113281 "/>
</g>
<g clip-path="url(#clip19)" clip-rule="nonzero">
<path style=" stroke:none;fill-rule:evenodd;fill:rgb(100%,100%,100%);fill-opacity:1;" d="M 314.039062 292.019531 C 314.039062 309.042969 300.222656 322.839844 283.179688 322.839844 L 91.507812 322.839844 C 74.460938 322.839844 60.648438 309.042969 60.648438 292.019531 L 60.648438 100.597656 C 60.648438 83.570312 74.460938 69.777344 91.507812 69.777344 L 283.179688 69.777344 C 300.222656 69.777344 314.039062 83.570312 314.039062 100.597656 L 314.039062 292.019531 "/>
</g>
<g clip-path="url(#clip20)" clip-rule="nonzero">
<path style=" stroke:none;fill-rule:nonzero;fill:rgb(21.958923%,71.369934%,100%);fill-opacity:1;" d="M 314.039062 292.019531 L 311.972656 292.019531 C 311.972656 299.96875 308.753906 307.144531 303.539062 312.359375 C 298.320312 317.566406 291.136719 320.78125 283.179688 320.78125 L 91.507812 320.78125 C 83.546875 320.78125 76.359375 317.566406 71.144531 312.359375 C 65.925781 307.144531 62.707031 299.96875 62.707031 292.019531 L 62.707031 100.597656 C 62.707031 92.648438 65.925781 85.472656 71.144531 80.261719 C 76.359375 75.050781 83.546875 71.839844 91.507812 71.835938 L 283.179688 71.835938 C 291.140625 71.839844 298.320312 75.050781 303.542969 80.261719 C 308.753906 85.472656 311.972656 92.648438 311.972656 100.597656 L 311.972656 292.019531 L 316.101562 292.019531 L 316.101562 100.597656 C 316.101562 82.429688 301.363281 67.714844 283.179688 67.714844 L 91.507812 67.714844 C 73.320312 67.714844 58.582031 82.429688 58.582031 100.597656 L 58.582031 292.019531 C 58.582031 310.179688 73.320312 324.902344 91.507812 324.902344 L 283.179688 324.902344 C 301.363281 324.902344 316.101562 310.179688 316.101562 292.019531 L 314.039062 292.019531 "/>
</g>
<g clip-path="url(#clip21)" clip-rule="nonzero">
<path style=" stroke:none;fill-rule:evenodd;fill:rgb(100%,100%,100%);fill-opacity:1;" d="M 283.179688 69.777344 L 91.507812 69.777344 C 74.460938 69.777344 60.648438 83.570312 60.648438 100.597656 L 60.648438 159.925781 L 314.039062 159.925781 L 314.039062 100.597656 C 314.039062 83.570312 300.222656 69.777344 283.179688 69.777344 "/>
</g>
<g clip-path="url(#clip22)" clip-rule="nonzero">
<path style=" stroke:none;fill-rule:nonzero;fill:rgb(21.958923%,71.369934%,100%);fill-opacity:1;" d="M 283.179688 69.777344 L 283.179688 67.714844 L 91.507812 67.714844 C 73.320312 67.714844 58.582031 82.429688 58.582031 100.597656 L 58.582031 159.925781 C 58.582031 160.46875 58.800781 161 59.1875 161.382812 C 59.570312 161.765625 60.101562 161.984375 60.648438 161.984375 L 314.039062 161.984375 C 314.585938 161.984375 315.105469 161.773438 315.496094 161.382812 C 315.886719 160.992188 316.101562 160.476562 316.101562 159.925781 L 316.101562 100.597656 C 316.101562 82.429688 301.363281 67.714844 283.179688 67.714844 L 283.179688 71.835938 C 291.140625 71.839844 298.320312 75.050781 303.542969 80.261719 C 308.753906 85.472656 311.972656 92.648438 311.972656 100.597656 L 311.972656 157.863281 L 62.707031 157.863281 L 62.707031 100.597656 C 62.707031 92.648438 65.925781 85.472656 71.144531 80.261719 C 76.359375 75.050781 83.546875 71.839844 91.507812 71.835938 L 283.179688 71.835938 L 283.179688 69.777344 "/>
</g>
<g clip-path="url(#clip23)" clip-rule="nonzero">
<path style=" stroke:none;fill-rule:evenodd;fill:rgb(100%,100%,100%);fill-opacity:1;" d="M 313.671875 291.386719 C 313.671875 308.316406 299.933594 322.039062 282.988281 322.039062 L 92.433594 322.039062 C 75.488281 322.039062 61.753906 308.316406 61.753906 291.386719 L 61.753906 101.015625 C 61.753906 84.078125 75.488281 70.363281 92.433594 70.363281 L 282.988281 70.363281 C 299.933594 70.363281 313.671875 84.078125 313.671875 101.015625 L 313.671875 291.386719 "/>
</g>
<g clip-path="url(#clip24)" clip-rule="nonzero">
<path style=" stroke:none;fill-rule:nonzero;fill:rgb(21.958923%,71.369934%,100%);fill-opacity:1;" d="M 313.671875 291.386719 L 311.617188 291.386719 C 311.617188 299.292969 308.417969 306.429688 303.230469 311.613281 C 298.046875 316.796875 290.902344 319.992188 282.988281 319.992188 L 92.433594 319.992188 C 84.519531 319.992188 77.375 316.796875 72.191406 311.613281 C 67.003906 306.429688 63.804688 299.292969 63.804688 291.386719 L 63.804688 101.015625 C 63.804688 93.109375 67.003906 85.972656 72.191406 80.789062 C 77.375 75.609375 84.519531 72.414062 92.433594 72.410156 L 282.988281 72.410156 C 290.90625 72.414062 298.046875 75.609375 303.234375 80.789062 C 308.417969 85.972656 311.617188 93.109375 311.617188 101.015625 L 311.617188 291.386719 L 315.71875 291.386719 L 315.71875 101.015625 C 315.71875 82.945312 301.066406 68.3125 282.988281 68.3125 L 92.433594 68.3125 C 74.351562 68.3125 59.699219 82.945312 59.699219 101.015625 L 59.699219 291.386719 C 59.699219 309.449219 74.351562 324.089844 92.433594 324.089844 L 282.988281 324.089844 C 301.066406 324.089844 315.71875 309.449219 315.71875 291.386719 L 313.671875 291.386719 "/>
</g>
<g clip-path="url(#clip25)" clip-rule="nonzero">
<path style=" stroke:none;fill-rule:evenodd;fill:rgb(100%,100%,100%);fill-opacity:1;" d="M 282.988281 70.363281 L 92.433594 70.363281 C 75.488281 70.363281 61.753906 84.078125 61.753906 101.015625 L 61.753906 160.019531 L 313.671875 160.019531 L 313.671875 101.015625 C 313.671875 84.078125 299.933594 70.363281 282.988281 70.363281 "/>
</g>
<g clip-path="url(#clip26)" clip-rule="nonzero">
<path style=" stroke:none;fill-rule:nonzero;fill:rgb(21.958923%,71.369934%,100%);fill-opacity:1;" d="M 282.988281 70.363281 L 282.988281 68.3125 L 92.433594 68.3125 C 74.351562 68.3125 59.699219 82.945312 59.699219 101.015625 L 59.699219 160.019531 C 59.699219 160.554688 59.921875 161.085938 60.304688 161.46875 C 60.683594 161.847656 61.210938 162.066406 61.753906 162.066406 L 313.671875 162.066406 C 314.214844 162.066406 314.734375 161.855469 315.117188 161.46875 C 315.507812 161.078125 315.71875 160.566406 315.71875 160.019531 L 315.71875 101.015625 C 315.71875 82.945312 301.066406 68.3125 282.988281 68.3125 L 282.988281 72.410156 C 290.90625 72.414062 298.046875 75.609375 303.234375 80.789062 C 308.417969 85.972656 311.617188 93.109375 311.617188 101.015625 L 311.617188 157.96875 L 63.804688 157.96875 L 63.804688 101.015625 C 63.804688 93.109375 67.003906 85.972656 72.191406 80.789062 C 77.375 75.609375 84.519531 72.414062 92.433594 72.410156 L 282.988281 72.410156 L 282.988281 70.363281 "/>
</g>
<g clip-path="url(#clip27)" clip-rule="nonzero">
<path style=" stroke:none;fill-rule:evenodd;fill:rgb(100%,100%,100%);fill-opacity:1;" d="M 311.089844 288.488281 C 311.089844 305.183594 297.554688 318.71875 280.855469 318.71875 L 93.089844 318.71875 C 76.394531 318.71875 62.859375 305.183594 62.859375 288.488281 L 62.859375 100.738281 C 62.859375 84.035156 76.394531 70.507812 93.089844 70.507812 L 280.855469 70.507812 C 297.554688 70.507812 311.089844 84.035156 311.089844 100.738281 L 311.089844 288.488281 "/>
</g>
<g clip-path="url(#clip28)" clip-rule="nonzero">
<path style=" stroke:none;fill-rule:nonzero;fill:rgb(21.958923%,71.369934%,100%);fill-opacity:1;" d="M 311.089844 288.488281 L 309.066406 288.488281 C 309.066406 296.285156 305.914062 303.324219 300.800781 308.4375 C 295.691406 313.546875 288.652344 316.699219 280.855469 316.699219 L 93.089844 316.699219 C 85.292969 316.699219 78.253906 313.546875 73.144531 308.4375 C 68.03125 303.324219 64.878906 296.285156 64.878906 288.488281 L 64.878906 100.738281 C 64.878906 92.941406 68.03125 85.902344 73.144531 80.792969 C 78.253906 75.679688 85.292969 72.53125 93.089844 72.527344 L 280.855469 72.527344 C 288.65625 72.53125 295.691406 75.679688 300.804688 80.792969 C 305.914062 85.902344 309.066406 92.941406 309.066406 100.738281 L 309.066406 288.488281 L 313.109375 288.488281 L 313.109375 100.738281 C 313.109375 82.917969 298.671875 68.484375 280.855469 68.484375 L 93.089844 68.484375 C 75.273438 68.484375 60.835938 82.917969 60.835938 100.738281 L 60.835938 288.488281 C 60.835938 306.300781 75.273438 320.742188 93.089844 320.742188 L 280.855469 320.742188 C 298.671875 320.742188 313.109375 306.300781 313.109375 288.488281 L 311.089844 288.488281 "/>
</g>
<g clip-path="url(#clip29)" clip-rule="nonzero">
<path style=" stroke:none;fill-rule:evenodd;fill:rgb(100%,100%,100%);fill-opacity:1;" d="M 310.390625 286.890625 C 310.390625 303.402344 296.976562 316.785156 280.425781 316.785156 L 94.324219 316.785156 C 77.773438 316.785156 64.359375 303.402344 64.359375 286.890625 L 64.359375 101.238281 C 64.359375 84.722656 77.773438 71.347656 94.324219 71.347656 L 280.425781 71.347656 C 296.976562 71.347656 310.390625 84.722656 310.390625 101.238281 L 310.390625 286.890625 "/>
</g>
<g clip-path="url(#clip30)" clip-rule="nonzero">
<path style=" stroke:none;fill-rule:nonzero;fill:rgb(21.958923%,71.369934%,100%);fill-opacity:1;" d="M 310.390625 286.890625 L 308.382812 286.890625 C 308.382812 294.601562 305.257812 301.558594 300.191406 306.617188 C 295.128906 311.667969 288.152344 314.785156 280.425781 314.785156 L 94.324219 314.785156 C 86.59375 314.785156 79.617188 311.667969 74.550781 306.617188 C 69.488281 301.558594 66.363281 294.601562 66.363281 286.890625 L 66.363281 101.238281 C 66.363281 93.527344 69.488281 86.566406 74.550781 81.515625 C 79.617188 76.460938 86.59375 73.347656 94.324219 73.34375 L 280.425781 73.34375 C 288.15625 73.347656 295.128906 76.460938 300.195312 81.515625 C 305.257812 86.566406 308.382812 93.527344 308.382812 101.238281 L 308.382812 286.890625 L 312.390625 286.890625 L 312.390625 101.238281 C 312.390625 83.617188 298.082031 69.347656 280.425781 69.347656 L 94.324219 69.347656 C 76.664062 69.347656 62.355469 83.617188 62.355469 101.238281 L 62.355469 286.890625 C 62.355469 304.503906 76.664062 318.785156 94.324219 318.785156 L 280.425781 318.785156 C 298.082031 318.785156 312.390625 304.503906 312.390625 286.890625 L 310.390625 286.890625 "/>
</g>
<g clip-path="url(#clip31)" clip-rule="nonzero">
<path style=" stroke:none;fill-rule:evenodd;fill:rgb(100%,100%,100%);fill-opacity:1;" d="M 308.425781 286.0625 C 308.425781 302.433594 295.171875 315.703125 278.820312 315.703125 L 94.945312 315.703125 C 78.59375 315.703125 65.339844 302.433594 65.339844 286.0625 L 65.339844 101.984375 C 65.339844 85.605469 78.59375 72.34375 94.945312 72.34375 L 278.820312 72.34375 C 295.171875 72.34375 308.425781 85.605469 308.425781 101.984375 L 308.425781 286.0625 "/>
</g>
<g clip-path="url(#clip32)" clip-rule="nonzero">
<path style=" stroke:none;fill-rule:nonzero;fill:rgb(21.958923%,71.369934%,100%);fill-opacity:1;" d="M 308.425781 286.0625 L 306.445312 286.0625 C 306.445312 293.707031 303.355469 300.605469 298.351562 305.621094 C 293.347656 310.628906 286.453125 313.722656 278.820312 313.722656 L 94.945312 313.722656 C 87.308594 313.722656 80.414062 310.628906 75.410156 305.621094 C 70.40625 300.605469 67.320312 293.707031 67.320312 286.0625 L 67.320312 101.984375 C 67.320312 94.335938 70.40625 87.4375 75.410156 82.425781 C 80.414062 77.417969 87.308594 74.328125 94.945312 74.324219 L 278.820312 74.324219 C 286.457031 74.328125 293.347656 77.417969 298.355469 82.425781 C 303.355469 87.4375 306.445312 94.335938 306.445312 101.984375 L 306.445312 286.0625 L 310.402344 286.0625 L 310.402344 101.984375 C 310.402344 84.511719 296.265625 70.363281 278.820312 70.363281 L 94.945312 70.363281 C 77.496094 70.363281 63.359375 84.511719 63.359375 101.984375 L 63.359375 286.0625 C 63.359375 303.527344 77.496094 317.683594 94.945312 317.683594 L 278.820312 317.683594 C 296.265625 317.683594 310.402344 303.527344 310.402344 286.0625 L 308.425781 286.0625 "/>
</g>
<g clip-path="url(#clip33)" clip-rule="nonzero">
<path style=" stroke:none;fill-rule:evenodd;fill:rgb(100%,100%,100%);fill-opacity:1;" d="M 307.378906 283.882812 C 307.378906 299.972656 294.328125 313.015625 278.222656 313.015625 L 97.136719 313.015625 C 81.03125 313.015625 67.980469 299.972656 67.980469 283.882812 L 67.980469 102.949219 C 67.980469 86.851562 81.03125 73.820312 97.136719 73.820312 L 278.222656 73.820312 C 294.328125 73.820312 307.378906 86.851562 307.378906 102.949219 L 307.378906 283.882812 "/>
</g>
<g clip-path="url(#clip34)" clip-rule="nonzero">
<path style=" stroke:none;fill-rule:nonzero;fill:rgb(21.958923%,71.369934%,100%);fill-opacity:1;" d="M 307.378906 283.882812 L 305.429688 283.882812 C 305.429688 291.394531 302.386719 298.179688 297.457031 303.105469 C 292.53125 308.03125 285.742188 311.070312 278.222656 311.070312 L 97.136719 311.070312 C 89.613281 311.070312 82.824219 308.03125 77.894531 303.105469 C 72.96875 298.179688 69.925781 291.394531 69.925781 283.882812 L 69.925781 102.949219 C 69.925781 95.433594 72.96875 88.652344 77.894531 83.726562 C 82.824219 78.804688 89.613281 75.769531 97.136719 75.765625 L 278.222656 75.765625 C 285.746094 75.769531 292.53125 78.804688 297.460938 83.726562 C 302.386719 88.652344 305.429688 95.433594 305.429688 102.949219 L 305.429688 283.882812 L 309.328125 283.882812 L 309.328125 102.949219 C 309.328125 85.777344 295.402344 71.867188 278.222656 71.867188 L 97.136719 71.867188 C 79.953125 71.867188 66.027344 85.777344 66.027344 102.949219 L 66.027344 283.882812 C 66.027344 301.046875 79.953125 314.964844 97.136719 314.964844 L 278.222656 314.964844 C 295.402344 314.964844 309.328125 301.046875 309.328125 283.882812 L 307.378906 283.882812 "/>
</g>
<g clip-path="url(#clip35)" clip-rule="nonzero">
<path style=" stroke:none;fill-rule:evenodd;fill:rgb(100%,100%,100%);fill-opacity:1;" d="M 304.773438 281.515625 C 304.773438 297.277344 292 310.054688 276.246094 310.054688 L 99.0625 310.054688 C 83.304688 310.054688 70.53125 297.277344 70.53125 281.515625 L 70.53125 104.253906 C 70.53125 88.484375 83.304688 75.710938 99.0625 75.710938 L 276.246094 75.710938 C 292 75.710938 304.773438 88.484375 304.773438 104.253906 L 304.773438 281.515625 "/>
</g>
<g clip-path="url(#clip36)" clip-rule="nonzero">
<path style=" stroke:none;fill-rule:nonzero;fill:rgb(21.958923%,71.369934%,100%);fill-opacity:1;" d="M 304.773438 281.515625 L 302.863281 281.515625 C 302.863281 288.875 299.886719 295.519531 295.066406 300.347656 C 290.242188 305.171875 283.601562 308.148438 276.246094 308.148438 L 99.0625 308.148438 C 91.699219 308.148438 85.058594 305.171875 80.234375 300.347656 C 75.414062 295.519531 72.4375 288.875 72.4375 281.515625 L 72.4375 104.253906 C 72.4375 96.890625 75.414062 90.246094 80.234375 85.421875 C 85.058594 80.59375 91.699219 77.621094 99.0625 77.617188 L 276.246094 77.617188 C 283.605469 77.621094 290.242188 80.59375 295.070312 85.421875 C 299.886719 90.246094 302.863281 96.890625 302.863281 104.253906 L 302.863281 281.515625 L 306.679688 281.515625 L 306.679688 104.253906 C 306.679688 87.429688 293.054688 73.800781 276.246094 73.800781 L 99.0625 73.800781 C 82.246094 73.800781 68.625 87.429688 68.625 104.253906 L 68.625 281.515625 C 68.625 298.332031 82.246094 311.964844 99.0625 311.964844 L 276.246094 311.964844 C 293.054688 311.964844 306.679688 298.332031 306.679688 281.515625 L 304.773438 281.515625 "/>
</g>
<g clip-path="url(#clip37)" clip-rule="nonzero">
<path style=" stroke:none;fill-rule:evenodd;fill:rgb(100%,100%,100%);fill-opacity:1;" d="M 304.773438 285.28125 C 304.773438 301.046875 292 313.824219 276.246094 313.824219 L 99.0625 313.824219 C 83.304688 313.824219 70.53125 301.046875 70.53125 285.28125 L 70.53125 108.019531 C 70.53125 92.25 83.304688 79.480469 99.0625 79.480469 L 276.246094 79.480469 C 292 79.480469 304.773438 92.25 304.773438 108.019531 L 304.773438 285.28125 "/>
</g>
<g clip-path="url(#clip38)" clip-rule="nonzero">
<path style=" stroke:none;fill-rule:nonzero;fill:rgb(21.958923%,71.369934%,100%);fill-opacity:1;" d="M 304.773438 285.28125 L 302.863281 285.28125 C 302.863281 292.640625 299.886719 299.285156 295.066406 304.113281 C 290.242188 308.9375 283.601562 311.914062 276.246094 311.914062 L 99.0625 311.914062 C 91.699219 311.914062 85.058594 308.9375 80.234375 304.113281 C 75.414062 299.285156 72.4375 292.640625 72.4375 285.28125 L 72.4375 108.019531 C 72.4375 100.65625 75.414062 94.011719 80.234375 89.1875 C 85.058594 84.363281 91.699219 81.390625 99.0625 81.386719 L 276.246094 81.386719 C 283.605469 81.390625 290.242188 84.363281 295.070312 89.1875 C 299.886719 94.011719 302.863281 100.65625 302.863281 108.019531 L 302.863281 285.28125 L 306.679688 285.28125 L 306.679688 108.019531 C 306.679688 91.195312 293.054688 77.570312 276.246094 77.570312 L 99.0625 77.570312 C 82.246094 77.570312 68.625 91.195312 68.625 108.019531 L 68.625 285.28125 C 68.625 302.097656 82.246094 315.730469 99.0625 315.730469 L 276.246094 315.730469 C 293.054688 315.730469 306.679688 302.097656 306.679688 285.28125 L 304.773438 285.28125 "/>
</g>
<g clip-path="url(#clip39)" clip-rule="nonzero">
<path style=" stroke:none;fill-rule:evenodd;fill:rgb(100%,100%,100%);fill-opacity:1;" d="M 301.253906 278.320312 C 301.253906 293.664062 288.84375 306.101562 273.535156 306.101562 L 101.367188 306.101562 C 86.054688 306.101562 73.644531 293.664062 73.644531 278.320312 L 73.644531 105.78125 C 73.644531 90.429688 86.054688 78 101.367188 78 L 273.535156 78 C 288.84375 78 301.253906 90.429688 301.253906 105.78125 L 301.253906 278.320312 "/>
</g>
<g clip-path="url(#clip40)" clip-rule="nonzero">
<path style=" stroke:none;fill-rule:nonzero;fill:rgb(21.958923%,71.369934%,100%);fill-opacity:1;" d="M 301.253906 278.320312 L 299.398438 278.320312 C 299.398438 285.484375 296.507812 291.953125 291.820312 296.652344 C 287.136719 301.347656 280.683594 304.246094 273.535156 304.246094 L 101.367188 304.246094 C 94.214844 304.246094 87.761719 301.347656 83.074219 296.652344 C 78.386719 291.953125 75.496094 285.484375 75.496094 278.320312 L 75.496094 105.78125 C 75.496094 98.613281 78.386719 92.144531 83.074219 87.449219 C 87.761719 82.753906 94.214844 79.859375 101.367188 79.855469 L 273.535156 79.855469 C 280.683594 79.859375 287.136719 82.753906 291.824219 87.449219 C 296.507812 92.144531 299.398438 98.613281 299.398438 105.78125 L 299.398438 278.320312 L 303.105469 278.320312 L 303.105469 105.78125 C 303.105469 89.40625 289.867188 76.140625 273.535156 76.140625 L 101.367188 76.140625 C 85.027344 76.140625 71.789062 89.40625 71.789062 105.78125 L 71.789062 278.320312 C 71.789062 294.691406 85.027344 307.960938 101.367188 307.960938 L 273.535156 307.960938 C 289.867188 307.960938 303.105469 294.691406 303.105469 278.320312 L 301.253906 278.320312 "/>
</g>
<g clip-path="url(#clip41)" clip-rule="nonzero">
<path style=" stroke:none;fill-rule:evenodd;fill:rgb(100%,100%,100%);fill-opacity:1;" d="M 298.8125 275.707031 C 298.8125 290.726562 286.644531 302.898438 271.628906 302.898438 L 102.808594 302.898438 C 87.796875 302.898438 75.628906 290.726562 75.628906 275.707031 L 75.628906 106.835938 C 75.628906 91.8125 87.796875 79.648438 102.808594 79.648438 L 271.628906 79.648438 C 286.644531 79.648438 298.8125 91.8125 298.8125 106.835938 L 298.8125 275.707031 "/>
</g>
<g clip-path="url(#clip42)" clip-rule="nonzero">
<path style=" stroke:none;fill-rule:nonzero;fill:rgb(21.958923%,71.369934%,100%);fill-opacity:1;" d="M 298.8125 275.707031 L 296.992188 275.707031 C 296.992188 282.71875 294.160156 289.050781 289.5625 293.648438 C 284.96875 298.246094 278.640625 301.082031 271.628906 301.082031 L 102.808594 301.082031 C 95.796875 301.082031 89.46875 298.246094 84.871094 293.648438 C 80.277344 289.050781 77.441406 282.71875 77.441406 275.707031 L 77.441406 106.835938 C 77.441406 99.824219 80.277344 93.492188 84.871094 88.894531 C 89.46875 84.300781 95.796875 81.46875 102.808594 81.464844 L 271.628906 81.464844 C 278.644531 81.46875 284.96875 84.300781 289.566406 88.894531 C 294.160156 93.492188 296.992188 99.824219 296.992188 106.835938 L 296.992188 275.707031 L 300.628906 275.707031 L 300.628906 106.835938 C 300.628906 90.808594 287.648438 77.828125 271.628906 77.828125 L 102.808594 77.828125 C 86.789062 77.828125 73.808594 90.808594 73.808594 106.835938 L 73.808594 275.707031 C 73.808594 291.730469 86.789062 304.71875 102.808594 304.71875 L 271.628906 304.71875 C 287.648438 304.71875 300.628906 291.730469 300.628906 275.707031 L 298.8125 275.707031 "/>
</g>
<g clip-path="url(#clip43)" clip-rule="nonzero">
<path style=" stroke:none;fill-rule:evenodd;fill:rgb(100%,100%,100%);fill-opacity:1;" d="M 296.265625 272.726562 C 296.265625 287.371094 284.378906 299.242188 269.710938 299.242188 L 104.789062 299.242188 C 90.121094 299.242188 78.234375 287.371094 78.234375 272.726562 L 78.234375 108.050781 C 78.234375 93.402344 90.121094 81.539062 104.789062 81.539062 L 269.710938 81.539062 C 284.378906 81.539062 296.265625 93.402344 296.265625 108.050781 L 296.265625 272.726562 "/>
</g>
<g clip-path="url(#clip44)" clip-rule="nonzero">
<path style=" stroke:none;fill-rule:nonzero;fill:rgb(21.958923%,71.369934%,100%);fill-opacity:1;" d="M 296.265625 272.726562 L 294.488281 272.726562 C 294.488281 279.5625 291.71875 285.738281 287.230469 290.222656 C 282.742188 294.703125 276.558594 297.46875 269.710938 297.46875 L 104.789062 297.46875 C 97.9375 297.46875 91.753906 294.703125 87.265625 290.222656 C 82.777344 285.738281 80.007812 279.5625 80.007812 272.726562 L 80.007812 108.050781 C 80.007812 101.210938 82.777344 95.039062 87.265625 90.554688 C 91.753906 86.074219 97.9375 83.3125 104.789062 83.308594 L 269.710938 83.308594 C 276.5625 83.3125 282.742188 86.074219 287.234375 90.554688 C 291.71875 95.039062 294.488281 101.210938 294.488281 108.050781 L 294.488281 272.726562 L 298.039062 272.726562 L 298.039062 108.050781 C 298.039062 92.421875 285.359375 79.761719 269.710938 79.761719 L 104.789062 79.761719 C 89.136719 79.761719 76.457031 92.421875 76.457031 108.050781 L 76.457031 272.726562 C 76.457031 288.351562 89.136719 301.015625 104.789062 301.015625 L 269.710938 301.015625 C 285.359375 301.015625 298.039062 288.351562 298.039062 272.726562 L 296.265625 272.726562 "/>
</g>
<g clip-path="url(#clip45)" clip-rule="nonzero">
<path style=" stroke:none;fill-rule:evenodd;fill:rgb(100%,100%,100%);fill-opacity:1;" d="M 293.652344 269.890625 C 293.652344 284.253906 282.007812 295.898438 267.636719 295.898438 L 106.046875 295.898438 C 91.675781 295.898438 80.027344 284.253906 80.027344 269.890625 L 80.027344 108.363281 C 80.027344 93.992188 91.675781 82.355469 106.046875 82.355469 L 267.636719 82.355469 C 282.007812 82.355469 293.652344 93.992188 293.652344 108.363281 L 293.652344 269.890625 "/>
</g>
<g clip-path="url(#clip46)" clip-rule="nonzero">
<path style=" stroke:none;fill-rule:nonzero;fill:rgb(21.958923%,71.369934%,100%);fill-opacity:1;" d="M 293.652344 269.890625 L 291.914062 269.890625 C 291.914062 276.597656 289.199219 282.652344 284.800781 287.050781 C 280.402344 291.449219 274.34375 294.160156 267.636719 294.160156 L 106.046875 294.160156 C 99.332031 294.160156 93.277344 291.449219 88.878906 287.050781 C 84.480469 282.652344 81.765625 276.597656 81.765625 269.890625 L 81.765625 108.363281 C 81.765625 101.652344 84.480469 95.597656 88.878906 91.199219 C 93.277344 86.804688 99.332031 84.09375 106.046875 84.089844 L 267.636719 84.089844 C 274.347656 84.09375 280.402344 86.804688 284.804688 91.199219 C 289.199219 95.597656 291.914062 101.652344 291.914062 108.363281 L 291.914062 269.890625 L 295.390625 269.890625 L 295.390625 108.363281 C 295.390625 93.03125 282.964844 80.613281 267.636719 80.613281 L 106.046875 80.613281 C 90.710938 80.613281 78.289062 93.03125 78.289062 108.363281 L 78.289062 269.890625 C 78.289062 285.214844 90.710938 297.636719 106.046875 297.636719 L 267.636719 297.636719 C 282.964844 297.636719 295.390625 285.214844 295.390625 269.890625 L 293.652344 269.890625 "/>
</g>
<g clip-path="url(#clip47)" clip-rule="nonzero">
<path style=" stroke:none;fill-rule:evenodd;fill:rgb(100%,100%,100%);fill-opacity:1;" d="M 293.652344 284.367188 C 293.652344 298.730469 282.007812 310.375 267.636719 310.375 L 106.046875 310.375 C 91.675781 310.375 80.027344 298.730469 80.027344 284.367188 L 80.027344 122.839844 C 80.027344 108.46875 91.675781 96.828125 106.046875 96.828125 L 267.636719 96.828125 C 282.007812 96.828125 293.652344 108.46875 293.652344 122.839844 L 293.652344 284.367188 "/>
</g>
<g clip-path="url(#clip48)" clip-rule="nonzero">
<path style=" stroke:none;fill-rule:nonzero;fill:rgb(21.958923%,71.369934%,100%);fill-opacity:1;" d="M 293.652344 284.367188 L 291.914062 284.367188 C 291.914062 291.074219 289.199219 297.128906 284.800781 301.527344 C 280.402344 305.921875 274.34375 308.636719 267.636719 308.636719 L 106.046875 308.636719 C 99.332031 308.636719 93.277344 305.921875 88.878906 301.527344 C 84.480469 297.128906 81.765625 291.074219 81.765625 284.367188 L 81.765625 122.839844 C 81.765625 116.128906 84.480469 110.074219 88.878906 105.675781 C 93.277344 101.28125 99.332031 98.570312 106.046875 98.566406 L 267.636719 98.566406 C 274.347656 98.570312 280.402344 101.28125 284.804688 105.675781 C 289.199219 110.074219 291.914062 116.128906 291.914062 122.839844 L 291.914062 284.367188 L 295.390625 284.367188 L 295.390625 122.839844 C 295.390625 107.507812 282.964844 95.089844 267.636719 95.089844 L 106.046875 95.089844 C 90.710938 95.089844 78.289062 107.507812 78.289062 122.839844 L 78.289062 284.367188 C 78.289062 299.691406 90.710938 312.113281 106.046875 312.113281 L 267.636719 312.113281 C 282.964844 312.113281 295.390625 299.691406 295.390625 284.367188 L 293.652344 284.367188 "/>
</g>
<g clip-path="url(#clip49)" clip-rule="nonzero">
<path style=" stroke:none;fill-rule:evenodd;fill:rgb(100%,100%,100%);fill-opacity:1;" d="M 293.652344 281.652344 C 293.652344 296.019531 282.007812 307.660156 267.636719 307.660156 L 106.046875 307.660156 C 91.675781 307.660156 80.027344 296.019531 80.027344 281.652344 L 80.027344 120.125 C 80.027344 105.753906 91.675781 94.117188 106.046875 94.117188 L 267.636719 94.117188 C 282.007812 94.117188 293.652344 105.753906 293.652344 120.125 L 293.652344 281.652344 "/>
</g>
<g clip-path="url(#clip50)" clip-rule="nonzero">
<path style=" stroke:none;fill-rule:nonzero;fill:rgb(21.958923%,71.369934%,100%);fill-opacity:1;" d="M 293.652344 281.652344 L 291.914062 281.652344 C 291.914062 288.359375 289.199219 294.414062 284.800781 298.8125 C 280.402344 303.210938 274.34375 305.921875 267.636719 305.921875 L 106.046875 305.921875 C 99.332031 305.921875 93.277344 303.210938 88.878906 298.8125 C 84.480469 294.414062 81.765625 288.359375 81.765625 281.652344 L 81.765625 120.125 C 81.765625 113.414062 84.480469 107.359375 88.878906 102.964844 C 93.277344 98.566406 99.332031 95.859375 106.046875 95.855469 L 267.636719 95.855469 C 274.347656 95.859375 280.402344 98.566406 284.804688 102.964844 C 289.199219 107.359375 291.914062 113.414062 291.914062 120.125 L 291.914062 281.652344 L 295.390625 281.652344 L 295.390625 120.125 C 295.390625 104.792969 282.964844 92.375 267.636719 92.375 L 106.046875 92.375 C 90.710938 92.375 78.289062 104.792969 78.289062 120.125 L 78.289062 281.652344 C 78.289062 296.976562 90.710938 309.402344 106.046875 309.402344 L 267.636719 309.402344 C 282.964844 309.402344 295.390625 296.976562 295.390625 281.652344 L 293.652344 281.652344 "/>
</g>
<g clip-path="url(#clip51)" clip-rule="nonzero">
<path style=" stroke:none;fill-rule:evenodd;fill:rgb(100%,100%,100%);fill-opacity:1;" d="M 293.652344 278.765625 C 293.652344 293.128906 282.007812 304.773438 267.636719 304.773438 L 106.046875 304.773438 C 91.675781 304.773438 80.027344 293.128906 80.027344 278.765625 L 80.027344 117.238281 C 80.027344 102.867188 91.675781 91.230469 106.046875 91.230469 L 267.636719 91.230469 C 282.007812 91.230469 293.652344 102.867188 293.652344 117.238281 L 293.652344 278.765625 "/>
</g>
<g clip-path="url(#clip52)" clip-rule="nonzero">
<path style=" stroke:none;fill-rule:nonzero;fill:rgb(21.958923%,71.369934%,100%);fill-opacity:1;" d="M 293.652344 278.765625 L 291.914062 278.765625 C 291.914062 285.472656 289.199219 291.527344 284.800781 295.925781 C 280.402344 300.320312 274.34375 303.035156 267.636719 303.035156 L 106.046875 303.035156 C 99.332031 303.035156 93.277344 300.320312 88.878906 295.925781 C 84.480469 291.527344 81.765625 285.472656 81.765625 278.765625 L 81.765625 117.238281 C 81.765625 110.527344 84.480469 104.472656 88.878906 100.074219 C 93.277344 95.679688 99.332031 92.96875 106.046875 92.964844 L 267.636719 92.964844 C 274.347656 92.96875 280.402344 95.679688 284.804688 100.074219 C 289.199219 104.472656 291.914062 110.527344 291.914062 117.238281 L 291.914062 278.765625 L 295.390625 278.765625 L 295.390625 117.238281 C 295.390625 101.90625 282.964844 89.488281 267.636719 89.488281 L 106.046875 89.488281 C 90.710938 89.488281 78.289062 101.90625 78.289062 117.238281 L 78.289062 278.765625 C 78.289062 294.089844 90.710938 306.511719 106.046875 306.511719 L 267.636719 306.511719 C 282.964844 306.511719 295.390625 294.089844 295.390625 278.765625 L 293.652344 278.765625 "/>
</g>
<g clip-path="url(#clip53)" clip-rule="nonzero">
<path style=" stroke:none;fill-rule:nonzero;fill:rgb(21.958923%,71.369934%,100%);fill-opacity:1;" d="M 237.410156 206.292969 C 237.433594 206.292969 237.453125 206.292969 237.476562 206.292969 C 239.5625 206.304688 241.460938 207.160156 242.835938 208.535156 C 244.214844 209.917969 245.070312 211.824219 245.070312 213.929688 L 245.078125 213.929688 L 245.078125 240.65625 L 271.800781 240.65625 C 273.902344 240.65625 275.8125 241.515625 277.199219 242.898438 C 278.574219 244.277344 279.429688 246.175781 279.441406 248.265625 C 279.441406 248.285156 279.441406 248.308594 279.441406 248.328125 C 279.429688 250.417969 278.574219 252.3125 277.199219 253.6875 C 275.816406 255.070312 273.90625 255.925781 271.800781 255.925781 L 271.800781 255.929688 L 245.078125 255.929688 L 245.078125 282.65625 C 245.078125 284.757812 244.21875 286.667969 242.835938 288.050781 C 241.457031 289.425781 239.558594 290.285156 237.46875 290.292969 C 237.445312 290.292969 237.425781 290.292969 237.402344 290.292969 C 235.316406 290.28125 233.421875 289.425781 232.042969 288.050781 C 230.664062 286.671875 229.808594 284.761719 229.808594 282.65625 L 229.804688 282.65625 L 229.804688 255.929688 L 203.078125 255.929688 C 200.976562 255.929688 199.066406 255.070312 197.683594 253.6875 C 196.304688 252.308594 195.449219 250.414062 195.441406 248.320312 C 195.441406 248.300781 195.441406 248.277344 195.441406 248.257812 C 195.449219 246.167969 196.308594 244.273438 197.683594 242.898438 C 199.0625 241.515625 200.972656 240.660156 203.078125 240.660156 L 203.078125 240.65625 L 229.804688 240.65625 L 229.804688 213.929688 C 229.804688 211.828125 230.660156 209.917969 232.042969 208.535156 C 233.421875 207.15625 235.320312 206.300781 237.410156 206.292969 "/>
</g>
<g clip-path="url(#clip54)" clip-rule="nonzero">
<g clip-path="url(#clip55)" clip-rule="nonzero">
<g clip-path="url(#clip56)" clip-rule="nonzero">
<path style=" stroke:none;fill-rule:evenodd;fill:rgb(21.958923%,71.369934%,100%);fill-opacity:1;" d="M 392.371094 271.878906 C 404.277344 284.5 403.703125 304.375 391.085938 316.273438 L 249.230469 450.09375 C 236.617188 461.992188 216.742188 461.410156 204.835938 448.789062 L 70.964844 306.875 C 59.054688 294.25 59.632812 274.378906 72.25 262.480469 L 214.105469 128.664062 C 226.722656 116.761719 246.589844 117.339844 258.5 129.964844 L 392.371094 271.878906 "/>
</g>
</g>
</g>
<g clip-path="url(#clip57)" clip-rule="nonzero">
<g clip-path="url(#clip58)" clip-rule="nonzero">
<g clip-path="url(#clip59)" clip-rule="nonzero">
<path style=" stroke:none;fill-rule:nonzero;fill:rgb(21.958923%,71.369934%,100%);fill-opacity:1;" d="M 392.371094 271.878906 L 390.84375 273.320312 C 396.402344 279.214844 399.039062 286.78125 398.824219 294.289062 C 398.605469 301.792969 395.535156 309.191406 389.648438 314.75 L 247.792969 448.566406 C 241.898438 454.125 234.332031 456.757812 226.828125 456.539062 C 219.320312 456.316406 211.921875 453.242188 206.363281 447.347656 L 72.492188 305.4375 C 66.929688 299.542969 64.292969 291.972656 64.511719 284.46875 C 64.726562 276.964844 67.800781 269.566406 73.691406 264.007812 L 215.546875 130.1875 C 221.441406 124.632812 229 122 236.507812 122.21875 C 244.011719 122.441406 251.410156 125.511719 256.972656 131.40625 L 390.84375 273.320312 L 393.898438 270.441406 L 260.027344 128.527344 C 247.320312 115.058594 226.121094 114.4375 212.664062 127.132812 L 70.808594 260.949219 C 57.347656 273.648438 56.730469 294.847656 69.4375 308.316406 L 203.308594 450.230469 C 216.007812 463.695312 237.210938 464.320312 250.671875 451.621094 L 392.53125 317.804688 C 405.988281 305.109375 406.597656 283.902344 393.898438 270.441406 L 392.371094 271.878906 "/>
</g>
</g>
</g>
<g clip-path="url(#clip60)" clip-rule="nonzero">
<g clip-path="url(#clip61)" clip-rule="nonzero">
<g clip-path="url(#clip62)" clip-rule="nonzero">
<path style=" stroke:none;fill-rule:evenodd;fill:rgb(21.958923%,71.369934%,100%);fill-opacity:1;" d="M 214.105469 128.664062 L 72.25 262.480469 C 59.632812 274.378906 59.054688 294.25 70.964844 306.875 L 112.457031 350.859375 L 299.992188 173.949219 L 258.5 129.964844 C 246.589844 117.339844 226.722656 116.761719 214.105469 128.664062 "/>
</g>
</g>
</g>
<g clip-path="url(#clip63)" clip-rule="nonzero">
<g clip-path="url(#clip64)" clip-rule="nonzero">
<g clip-path="url(#clip65)" clip-rule="nonzero">
<path style=" stroke:none;fill-rule:nonzero;fill:rgb(21.958923%,71.369934%,100%);fill-opacity:1;" d="M 214.105469 128.664062 L 212.664062 127.132812 L 70.808594 260.949219 C 57.347656 273.648438 56.730469 294.847656 69.4375 308.316406 L 110.925781 352.300781 C 111.304688 352.703125 111.839844 352.941406 112.394531 352.960938 C 112.945312 352.972656 113.492188 352.765625 113.894531 352.386719 L 301.433594 175.476562 C 301.835938 175.09375 302.074219 174.570312 302.089844 174.015625 C 302.105469 173.449219 301.902344 172.917969 301.519531 172.511719 L 260.027344 128.527344 C 247.320312 115.058594 226.121094 114.4375 212.664062 127.132812 L 215.546875 130.1875 C 221.441406 124.632812 229 122 236.507812 122.21875 C 244.011719 122.441406 251.410156 125.511719 256.972656 131.40625 L 297.019531 173.863281 L 112.539062 347.890625 L 72.492188 305.4375 C 66.929688 299.542969 64.292969 291.972656 64.511719 284.46875 C 64.726562 276.964844 67.800781 269.566406 73.691406 264.007812 L 215.546875 130.1875 L 214.105469 128.664062 "/>
</g>
</g>
</g>
<g clip-path="url(#clip66)" clip-rule="nonzero">
<g clip-path="url(#clip67)" clip-rule="nonzero">
<g clip-path="url(#clip68)" clip-rule="nonzero">
<path style=" stroke:none;fill-rule:evenodd;fill:rgb(21.958923%,71.369934%,100%);fill-opacity:1;" d="M 125.621094 254.214844 C 132.1875 261.175781 131.882812 272.128906 124.929688 278.691406 C 117.980469 285.246094 107.011719 284.921875 100.445312 277.964844 C 93.894531 271.015625 94.207031 260.042969 101.15625 253.488281 C 108.109375 246.929688 119.070312 247.265625 125.621094 254.214844 "/>
</g>
</g>
</g>
<g clip-path="url(#clip69)" clip-rule="nonzero">
<g clip-path="url(#clip70)" clip-rule="nonzero">
<g clip-path="url(#clip71)" clip-rule="nonzero">
<path style=" stroke:none;fill-rule:nonzero;fill:rgb(21.958923%,71.369934%,100%);fill-opacity:1;" d="M 125.621094 254.214844 L 124.09375 255.65625 C 126.984375 258.71875 128.355469 262.644531 128.246094 266.542969 C 128.132812 270.441406 126.546875 274.273438 123.488281 277.160156 C 120.429688 280.042969 116.507812 281.40625 112.605469 281.296875 C 108.707031 281.179688 104.867188 279.585938 101.972656 276.523438 C 99.089844 273.46875 97.726562 269.542969 97.835938 265.636719 C 97.949219 261.738281 99.539062 257.902344 102.59375 255.015625 C 105.65625 252.132812 109.578125 250.769531 113.476562 250.882812 C 117.375 251.003906 121.210938 252.601562 124.09375 255.65625 L 127.148438 252.773438 C 123.476562 248.882812 118.5625 246.835938 113.601562 246.6875 C 108.640625 246.535156 103.609375 248.285156 99.714844 251.960938 C 91.921875 259.316406 91.570312 271.609375 98.917969 279.40625 C 106.285156 287.207031 118.574219 287.570312 126.367188 280.214844 C 134.167969 272.859375 134.507812 260.578125 127.148438 252.773438 L 125.621094 254.214844 "/>
</g>
</g>
</g>
<g clip-path="url(#clip72)" clip-rule="nonzero">
<g clip-path="url(#clip73)" clip-rule="nonzero">
<g clip-path="url(#clip74)" clip-rule="nonzero">
<path style=" stroke:none;fill-rule:evenodd;fill:rgb(21.958923%,71.369934%,100%);fill-opacity:1;" d="M 342.367188 610.292969 C 330.582031 623.027344 310.714844 623.800781 297.984375 612.023438 L 154.851562 479.574219 C 142.125 467.792969 141.355469 447.925781 153.140625 435.191406 L 285.644531 292 C 297.433594 279.261719 317.296875 278.492188 330.023438 290.269531 L 473.160156 422.722656 C 485.886719 434.5 486.660156 454.363281 474.871094 467.101562 L 342.367188 610.292969 "/>
</g>
</g>
</g>
<g clip-path="url(#clip75)" clip-rule="nonzero">
<g clip-path="url(#clip76)" clip-rule="nonzero">
<g clip-path="url(#clip77)" clip-rule="nonzero">
<path style=" stroke:none;fill-rule:nonzero;fill:rgb(21.958923%,71.369934%,100%);fill-opacity:1;" d="M 342.367188 610.292969 L 340.824219 608.867188 C 335.324219 614.8125 327.953125 617.957031 320.445312 618.25 C 312.945312 618.542969 305.355469 615.980469 299.410156 610.484375 L 156.277344 478.03125 C 150.332031 472.53125 147.191406 465.160156 146.902344 457.660156 C 146.613281 450.15625 149.179688 442.5625 154.679688 436.617188 L 287.183594 293.425781 C 292.6875 287.476562 300.058594 284.332031 307.5625 284.039062 C 315.0625 283.75 322.652344 286.3125 328.597656 291.8125 L 471.734375 424.261719 C 477.675781 429.765625 480.816406 437.128906 481.109375 444.636719 C 481.394531 452.132812 478.832031 459.726562 473.328125 465.675781 L 340.824219 608.867188 L 343.90625 611.71875 L 476.410156 468.527344 C 488.984375 454.9375 488.164062 433.742188 474.585938 421.179688 L 331.453125 288.726562 C 317.871094 276.160156 296.679688 276.984375 284.101562 290.574219 L 151.597656 433.765625 C 139.027344 447.351562 139.84375 468.546875 153.425781 481.117188 L 296.558594 613.566406 C 310.136719 626.132812 331.335938 625.304688 343.90625 611.71875 L 342.367188 610.292969 "/>
</g>
</g>
</g>
<g clip-path="url(#clip78)" clip-rule="nonzero">
<g clip-path="url(#clip79)" clip-rule="nonzero">
<g clip-path="url(#clip80)" clip-rule="nonzero">
<path style=" stroke:none;fill-rule:evenodd;fill:rgb(21.958923%,71.369934%,100%);fill-opacity:1;" d="M 473.160156 422.722656 L 330.023438 290.269531 C 317.296875 278.492188 297.433594 279.261719 285.644531 292 L 244.578125 336.378906 L 433.800781 511.480469 L 474.871094 467.101562 C 486.660156 454.363281 485.886719 434.5 473.160156 422.722656 "/>
</g>
</g>
</g>
<g clip-path="url(#clip81)" clip-rule="nonzero">
<g clip-path="url(#clip82)" clip-rule="nonzero">
<g clip-path="url(#clip83)" clip-rule="nonzero">
<path style=" stroke:none;fill-rule:nonzero;fill:rgb(21.958923%,71.369934%,100%);fill-opacity:1;" d="M 473.160156 422.722656 L 474.585938 421.179688 L 331.453125 288.726562 C 317.871094 276.160156 296.679688 276.984375 284.101562 290.574219 L 243.035156 334.953125 C 242.660156 335.355469 242.457031 335.910156 242.476562 336.460938 C 242.5 337.011719 242.746094 337.542969 243.152344 337.921875 L 432.378906 513.023438 C 432.785156 513.402344 433.324219 513.601562 433.882812 513.578125 C 434.445312 513.558594 434.960938 513.320312 435.34375 512.90625 L 476.410156 468.527344 C 488.984375 454.9375 488.164062 433.742188 474.585938 421.179688 L 471.734375 424.261719 C 477.675781 429.765625 480.816406 437.128906 481.109375 444.636719 C 481.394531 452.132812 478.832031 459.726562 473.328125 465.675781 L 433.6875 508.511719 L 247.542969 336.261719 L 287.183594 293.425781 C 292.6875 287.476562 300.058594 284.332031 307.5625 284.039062 C 315.0625 283.75 322.652344 286.3125 328.597656 291.8125 L 471.734375 424.261719 L 473.160156 422.722656 "/>
</g>
</g>
</g>
<g clip-path="url(#clip84)" clip-rule="nonzero">
<g clip-path="url(#clip85)" clip-rule="nonzero">
<g clip-path="url(#clip86)" clip-rule="nonzero">
<path style=" stroke:none;fill-rule:evenodd;fill:rgb(21.958923%,71.369934%,100%);fill-opacity:1;" d="M 341.890625 342.960938 C 335.394531 349.980469 324.445312 350.421875 317.425781 343.929688 C 310.414062 337.441406 309.992188 326.476562 316.492188 319.453125 C 322.976562 312.445312 333.945312 312.011719 340.957031 318.5 C 347.972656 324.992188 348.378906 335.949219 341.890625 342.960938 "/>
</g>
</g>
</g>
<g clip-path="url(#clip87)" clip-rule="nonzero">
<g clip-path="url(#clip88)" clip-rule="nonzero">
<g clip-path="url(#clip89)" clip-rule="nonzero">
<path style=" stroke:none;fill-rule:nonzero;fill:rgb(21.958923%,71.369934%,100%);fill-opacity:1;" d="M 341.890625 342.960938 L 340.351562 341.53125 C 337.488281 344.625 333.667969 346.257812 329.773438 346.414062 C 325.875 346.566406 321.941406 345.242188 318.855469 342.386719 C 315.769531 339.53125 314.144531 335.710938 313.988281 331.808594 C 313.84375 327.910156 315.171875 323.972656 318.03125 320.878906 C 320.882812 317.796875 324.707031 316.167969 328.609375 316.011719 C 332.507812 315.863281 336.445312 317.1875 339.53125 320.039062 C 342.617188 322.898438 344.242188 326.71875 344.390625 330.613281 C 344.535156 334.511719 343.203125 338.449219 340.351562 341.53125 L 343.433594 344.382812 C 347.066406 340.457031 348.777344 335.414062 348.585938 330.453125 C 348.402344 325.496094 346.316406 320.59375 342.386719 316.957031 C 334.515625 309.679688 322.226562 310.164062 314.949219 318.027344 C 307.664062 325.90625 308.136719 338.191406 316 345.46875 C 323.871094 352.75 336.144531 352.257812 343.433594 344.382812 L 341.890625 342.960938 "/>
</g>
</g>
</g>
<g clip-path="url(#clip90)" clip-rule="nonzero">
<g clip-path="url(#clip91)" clip-rule="nonzero">
<g clip-path="url(#clip92)" clip-rule="nonzero">
<path style=" stroke:none;fill-rule:evenodd;fill:rgb(21.958923%,71.369934%,100%);fill-opacity:1;" d="M 315.679688 359.496094 C 315.296875 376.839844 300.933594 390.589844 283.597656 390.207031 L 88.628906 385.917969 C 71.292969 385.535156 57.546875 371.167969 57.929688 353.820312 L 62.222656 158.777344 C 62.605469 141.421875 76.96875 127.679688 94.304688 128.0625 L 289.273438 132.355469 C 306.609375 132.734375 320.355469 147.097656 319.972656 164.449219 L 315.679688 359.496094 "/>
<path style=" stroke:none;fill-rule:nonzero;fill:rgb(21.958923%,71.369934%,100%);fill-opacity:1;" d="M 315.679688 359.496094 L 313.578125 359.449219 C 313.402344 367.546875 309.964844 374.785156 304.542969 379.980469 C 299.121094 385.171875 291.738281 388.289062 283.644531 388.109375 L 88.675781 383.820312 C 80.578125 383.640625 73.339844 380.203125 68.152344 374.777344 C 62.960938 369.351562 59.847656 361.964844 60.027344 353.867188 L 64.320312 158.824219 C 64.5 150.71875 67.933594 143.480469 73.359375 138.289062 C 78.78125 133.097656 86.160156 129.984375 94.261719 130.160156 L 289.226562 134.453125 C 297.324219 134.632812 304.558594 138.066406 309.75 143.492188 C 314.9375 148.917969 318.050781 156.300781 317.871094 164.402344 L 313.578125 359.449219 L 317.777344 359.539062 L 322.070312 164.496094 C 322.476562 145.984375 307.816406 130.660156 289.320312 130.253906 L 94.351562 125.960938 C 75.851562 125.554688 60.53125 140.21875 60.125 158.730469 L 55.828125 353.773438 C 55.421875 372.28125 70.082031 387.609375 88.585938 388.019531 L 283.550781 392.308594 C 302.046875 392.714844 317.371094 378.046875 317.777344 359.539062 L 315.679688 359.496094 "/>
<path style=" stroke:none;fill-rule:evenodd;fill:rgb(21.958923%,71.369934%,100%);fill-opacity:1;" d="M 289.273438 132.355469 L 94.304688 128.0625 C 76.96875 127.679688 62.605469 141.421875 62.222656 158.777344 L 60.894531 219.226562 L 318.640625 224.898438 L 319.972656 164.449219 C 320.355469 147.097656 306.609375 132.734375 289.273438 132.355469 "/>
<path style=" stroke:none;fill-rule:nonzero;fill:rgb(21.958923%,71.369934%,100%);fill-opacity:1;" d="M 289.273438 132.355469 L 289.320312 130.253906 L 94.351562 125.960938 C 75.851562 125.554688 60.53125 140.21875 60.125 158.730469 L 58.792969 219.179688 C 58.78125 219.730469 58.992188 220.28125 59.375 220.679688 C 59.757812 221.074219 60.292969 221.3125 60.847656 221.324219 L 318.597656 227 C 319.152344 227.011719 319.6875 226.804688 320.089844 226.417969 C 320.5 226.027344 320.726562 225.507812 320.738281 224.945312 L 322.070312 164.496094 C 322.476562 145.984375 307.816406 130.660156 289.320312 130.253906 L 289.226562 134.453125 C 297.324219 134.632812 304.558594 138.066406 309.75 143.492188 C 314.9375 148.917969 318.050781 156.300781 317.871094 164.402344 L 316.589844 222.753906 L 63.035156 217.171875 L 64.320312 158.824219 C 64.5 150.71875 67.933594 143.480469 73.359375 138.289062 C 78.78125 133.097656 86.160156 129.984375 94.261719 130.160156 L 289.226562 134.453125 L 289.273438 132.355469 "/>
</g>
</g>
</g>
</g>
</svg>
